#N canvas 238 43 967 694 10;
#N canvas 81 124 1284 735 receivers 0;
#X text 208 37 port number;
#X obj 47 56 oscparse;
#X obj 47 77 list trim;
#X obj 30 423 vsl 15 128 -10 10 0 0 empty empty empty 0 -9 0 10 -262144
-1 -1 0 1;
#X obj 52 423 vsl 15 128 -10 10 0 0 empty empty empty 0 -9 0 10 -262144
-1 -1 0 1;
#X obj 74 424 vsl 15 128 -10 10 0 0 empty empty empty 0 -9 0 10 -262144
-1 -1 0 1;
#X obj 210 211 bng 45 250 50 0 empty empty empty 17 7 0 10 -262144
-1 -1;
#X obj 113 426 vsl 15 128 100000 200000 0 0 empty empty empty 0 -9
0 10 -262144 -1 -1 0 1;
#X obj 47 122 unpack f f f f f f f;
#X obj 135 425 vsl 15 128 100000 200000 0 0 empty empty empty 0 -9
0 10 -262144 -1 -1 0 1;
#X obj 161 425 vsl 15 128 10000 100000 0 0 empty empty empty 0 -9 0
10 -262144 -1 -1 0 1;
#X obj 184 426 vsl 15 128 10000 100000 0 0 empty empty empty 0 -9 0
10 -262144 -1 -1 0 1;
#X text 37 561 accel;
#X text 119 562 touch;
#X obj 47 99 route acceltouch piezo;
#X obj 47 34 netreceive -u -b 44441;
#X obj 210 71 speedlim 5;
#X floatatom 250 165 5 0 0 0 - - -;
#X text 212 259 piezo;
#X obj 15 176 s one_accelx;
#X obj 13 205 s one_accely;
#X obj 14 236 s one_accelz;
#X obj 26 283 spigot;
#X obj 74 262 tgl 15 0 empty empty empty 17 7 0 10 -262144 -1 -1 0
1;
#X obj 39 354 spigot;
#X obj 76 335 tgl 15 0 empty empty empty 17 7 0 10 -262144 -1 -1 0
1;
#X obj 62 387 spigot;
#X obj 95 368 tgl 15 0 empty empty empty 17 7 0 10 -262144 -1 -1 0
1;
#X obj 217 94 s one_piezo;
#X obj 209 139 spigot;
#X obj 249 120 tgl 15 0 empty empty empty 17 7 0 10 -262144 -1 -1 0
1;
#X obj 211 165 > 1;
#X obj 211 189 sel 1;
#X obj 160 346 spigot;
#X obj 192 327 tgl 15 0 empty empty empty 17 7 0 10 -262144 -1 -1 0
1;
#X obj 168 389 spigot;
#X obj 197 369 tgl 15 0 empty empty empty 17 7 0 10 -262144 -1 -1 0
1;
#X obj 140 307 spigot;
#X obj 179 288 tgl 15 0 empty empty empty 17 7 0 10 -262144 -1 -1 0
1;
#X obj 114 153 s one_t1;
#X obj 112 182 s one_t2;
#X obj 113 213 s one_t3;
#X obj 113 239 s one_t4;
#X obj 118 279 spigot;
#X obj 155 260 tgl 15 0 empty empty empty 17 7 0 10 -262144 -1 -1 0
1;
#X text 509 35 port number;
#X obj 348 54 oscparse;
#X obj 348 75 list trim;
#X obj 331 421 vsl 15 128 -10 10 0 0 empty empty empty 0 -9 0 10 -262144
-1 -1 0 1;
#X obj 353 421 vsl 15 128 -10 10 0 0 empty empty empty 0 -9 0 10 -262144
-1 -1 0 1;
#X obj 375 422 vsl 15 128 -10 10 0 0 empty empty empty 0 -9 0 10 -262144
-1 -1 0 1;
#X obj 511 209 bng 45 250 50 0 empty empty empty 17 7 0 10 -262144
-1 -1;
#X obj 348 120 unpack f f f f f f f;
#X obj 462 423 vsl 15 128 50000 200000 0 0 empty empty empty 0 -9 0
10 -262144 -1 -1 0 1;
#X obj 485 424 vsl 15 128 50000 200000 0 0 empty empty empty 0 -9 0
10 -262144 -1 -1 0 1;
#X text 338 559 accel;
#X text 420 560 touch;
#X obj 348 97 route acceltouch piezo;
#X obj 511 69 speedlim 5;
#X floatatom 551 163 5 0 0 0 - - -;
#X text 513 257 piezo;
#X obj 327 281 spigot;
#X obj 375 260 tgl 15 0 empty empty empty 17 7 0 10 -262144 -1 -1 0
1;
#X obj 340 352 spigot;
#X obj 377 333 tgl 15 0 empty empty empty 17 7 0 10 -262144 -1 -1 0
1;
#X obj 363 385 spigot;
#X obj 396 366 tgl 15 0 empty empty empty 17 7 0 10 -262144 -1 -1 0
1;
#X obj 510 137 spigot;
#X obj 550 118 tgl 15 0 empty empty empty 17 7 0 10 -262144 -1 -1 0
1;
#X obj 512 163 > 1;
#X obj 512 187 sel 1;
#X obj 461 344 spigot;
#X obj 493 325 tgl 15 0 empty empty empty 17 7 0 10 -262144 -1 -1 0
1;
#X obj 469 387 spigot;
#X obj 498 367 tgl 15 0 empty empty empty 17 7 0 10 -262144 -1 -1 0
1;
#X obj 441 305 spigot;
#X obj 480 286 tgl 15 0 empty empty empty 17 7 0 10 -262144 -1 -1 0
1;
#X obj 419 277 spigot;
#X obj 456 258 tgl 15 0 empty empty empty 17 7 0 10 -262144 -1 -1 0
1;
#X obj 348 32 netreceive -u -b 44442;
#X text 800 34 port number;
#X obj 639 53 oscparse;
#X obj 639 74 list trim;
#X obj 622 420 vsl 15 128 -10 10 0 0 empty empty empty 0 -9 0 10 -262144
-1 -1 0 1;
#X obj 644 420 vsl 15 128 -10 10 0 0 empty empty empty 0 -9 0 10 -262144
-1 -1 0 1;
#X obj 666 421 vsl 15 128 -10 10 0 0 empty empty empty 0 -9 0 10 -262144
-1 -1 0 1;
#X obj 802 208 bng 45 250 50 0 empty empty empty 17 7 0 10 -262144
-1 -1;
#X obj 639 119 unpack f f f f f f f;
#X text 629 558 accel;
#X text 711 559 touch;
#X obj 639 96 route acceltouch piezo;
#X obj 802 68 speedlim 5;
#X floatatom 842 162 5 0 0 0 - - -;
#X text 804 256 piezo;
#X obj 618 280 spigot;
#X obj 666 259 tgl 15 0 empty empty empty 17 7 0 10 -262144 -1 -1 0
1;
#X obj 631 351 spigot;
#X obj 668 332 tgl 15 0 empty empty empty 17 7 0 10 -262144 -1 -1 0
1;
#X obj 654 384 spigot;
#X obj 687 365 tgl 15 0 empty empty empty 17 7 0 10 -262144 -1 -1 0
1;
#X obj 801 136 spigot;
#X obj 841 117 tgl 15 0 empty empty empty 17 7 0 10 -262144 -1 -1 0
1;
#X obj 803 162 > 1;
#X obj 803 186 sel 1;
#X obj 752 343 spigot;
#X obj 784 324 tgl 15 0 empty empty empty 17 7 0 10 -262144 -1 -1 0
1;
#X obj 760 386 spigot;
#X obj 789 366 tgl 15 0 empty empty empty 17 7 0 10 -262144 -1 -1 0
1;
#X obj 732 304 spigot;
#X obj 771 285 tgl 15 0 empty empty empty 17 7 0 10 -262144 -1 -1 0
1;
#X obj 710 276 spigot;
#X obj 747 257 tgl 15 0 empty empty empty 17 7 0 10 -262144 -1 -1 0
1;
#X obj 639 31 netreceive -u -b 44443;
#X text 1105 41 port number;
#X obj 944 60 oscparse;
#X obj 944 81 list trim;
#X obj 927 427 vsl 15 128 -10 10 0 0 empty empty empty 0 -9 0 10 -262144
-1 -1 0 1;
#X obj 949 427 vsl 15 128 -10 10 0 0 empty empty empty 0 -9 0 10 -262144
-1 -1 0 1;
#X obj 971 428 vsl 15 128 -10 10 0 0 empty empty empty 0 -9 0 10 -262144
-1 -1 0 1;
#X obj 1107 215 bng 45 250 50 0 empty empty empty 17 7 0 10 -262144
-1 -1;
#X obj 944 126 unpack f f f f f f f;
#X text 934 565 accel;
#X text 1016 566 touch;
#X obj 944 103 route acceltouch piezo;
#X obj 1107 75 speedlim 5;
#X floatatom 1147 169 5 0 0 0 - - -;
#X text 1109 263 piezo;
#X obj 923 287 spigot;
#X obj 971 266 tgl 15 0 empty empty empty 17 7 0 10 -262144 -1 -1 0
1;
#X obj 936 358 spigot;
#X obj 973 339 tgl 15 0 empty empty empty 17 7 0 10 -262144 -1 -1 0
1;
#X obj 959 391 spigot;
#X obj 992 372 tgl 15 0 empty empty empty 17 7 0 10 -262144 -1 -1 0
1;
#X obj 1106 143 spigot;
#X obj 1146 124 tgl 15 0 empty empty empty 17 7 0 10 -262144 -1 -1
0 1;
#X obj 1108 169 > 1;
#X obj 1108 193 sel 1;
#X obj 1057 350 spigot;
#X obj 1089 331 tgl 15 0 empty empty empty 17 7 0 10 -262144 -1 -1
0 1;
#X obj 1065 393 spigot;
#X obj 1094 373 tgl 15 0 empty empty empty 17 7 0 10 -262144 -1 -1
0 1;
#X obj 1037 311 spigot;
#X obj 1076 292 tgl 15 0 empty empty empty 17 7 0 10 -262144 -1 -1
0 1;
#X obj 1011 157 s one_t1;
#X obj 1009 186 s one_t2;
#X obj 1010 217 s one_t3;
#X obj 1010 243 s one_t4;
#X obj 1015 283 spigot;
#X obj 1052 264 tgl 15 0 empty empty empty 17 7 0 10 -262144 -1 -1
0 1;
#X obj 944 38 netreceive -u -b 44444;
#X text 200 621 port number;
#X obj 39 640 oscparse;
#X obj 39 661 list trim;
#X obj 22 1007 vsl 15 128 -100 100 0 0 empty empty empty 0 -9 0 10
-262144 -1 -1 0 1;
#X obj 44 1007 vsl 15 128 -100 100 0 0 empty empty empty 0 -9 0 10
-262144 -1 -1 0 1;
#X obj 66 1008 vsl 15 128 -1000 1000 0 0 empty empty empty 0 -9 0 10
-262144 -1 -1 0 1;
#X obj 202 795 bng 45 250 50 0 empty empty empty 17 7 0 10 -262144
-1 -1;
#X obj 105 1010 vsl 15 128 10000 100000 0 0 empty empty empty 0 -9
0 10 -262144 -1 -1 0 1;
#X obj 39 706 unpack f f f f f f f;
#X obj 127 1009 vsl 15 128 10000 100000 0 0 empty empty empty 0 -9
0 10 -262144 -1 -1 0 1;
#X obj 153 1009 vsl 15 128 10000 100000 0 0 empty empty empty 0 -9
0 10 -262144 -1 -1 0 1;
#X obj 176 1010 vsl 15 128 10000 100000 0 0 empty empty empty 0 -9
0 10 -262144 -1 -1 0 1;
#X text 29 1145 accel;
#X text 111 1146 touch;
#X obj 39 683 route acceltouch piezo;
#X obj 202 655 speedlim 5;
#X floatatom 242 749 5 0 0 0 - - -;
#X text 204 843 piezo;
#X obj 18 867 spigot;
#X obj 66 846 tgl 15 0 empty empty empty 17 7 0 10 -262144 -1 -1 0
1;
#X obj 31 938 spigot;
#X obj 68 919 tgl 15 0 empty empty empty 17 7 0 10 -262144 -1 -1 0
1;
#X obj 54 971 spigot;
#X obj 87 952 tgl 15 0 empty empty empty 17 7 0 10 -262144 -1 -1 0
1;
#X obj 201 723 spigot;
#X obj 241 704 tgl 15 0 empty empty empty 17 7 0 10 -262144 -1 -1 0
1;
#X obj 203 749 > 1;
#X obj 203 773 sel 1;
#X obj 152 930 spigot;
#X obj 184 911 tgl 15 0 empty empty empty 17 7 0 10 -262144 -1 -1 0
1;
#X obj 160 973 spigot;
#X obj 189 953 tgl 15 0 empty empty empty 17 7 0 10 -262144 -1 -1 0
1;
#X obj 132 891 spigot;
#X obj 171 872 tgl 15 0 empty empty empty 17 7 0 10 -262144 -1 -1 0
1;
#X obj 110 863 spigot;
#X obj 147 844 tgl 15 0 empty empty empty 17 7 0 10 -262144 -1 -1 0
1;
#X text 501 619 port number;
#X obj 340 638 oscparse;
#X obj 340 659 list trim;
#X obj 323 1005 vsl 15 128 -100 100 0 0 empty empty empty 0 -9 0 10
-262144 -1 -1 0 1;
#X obj 345 1005 vsl 15 128 -100 100 0 0 empty empty empty 0 -9 0 10
-262144 -1 -1 0 1;
#X obj 367 1006 vsl 15 128 -1000 1000 0 0 empty empty empty 0 -9 0
10 -262144 -1 -1 0 1;
#X obj 503 793 bng 45 250 50 0 empty empty empty 17 7 0 10 -262144
-1 -1;
#X obj 406 1008 vsl 15 128 10000 100000 0 0 empty empty empty 0 -9
0 10 -262144 -1 -1 0 1;
#X obj 340 704 unpack f f f f f f f;
#X obj 428 1007 vsl 15 128 10000 100000 0 0 empty empty empty 0 -9
0 10 -262144 -1 -1 0 1;
#X obj 454 1007 vsl 15 128 10000 100000 0 0 empty empty empty 0 -9
0 10 -262144 -1 -1 0 1;
#X obj 477 1008 vsl 15 128 10000 100000 0 0 empty empty empty 0 -9
0 10 -262144 -1 -1 0 1;
#X text 330 1143 accel;
#X text 412 1144 touch;
#X obj 340 681 route acceltouch piezo;
#X obj 503 653 speedlim 5;
#X floatatom 543 747 5 0 0 0 - - -;
#X text 505 841 piezo;
#X obj 319 865 spigot;
#X obj 367 844 tgl 15 0 empty empty empty 17 7 0 10 -262144 -1 -1 0
1;
#X obj 332 936 spigot;
#X obj 369 917 tgl 15 0 empty empty empty 17 7 0 10 -262144 -1 -1 0
1;
#X obj 355 969 spigot;
#X obj 388 950 tgl 15 0 empty empty empty 17 7 0 10 -262144 -1 -1 0
1;
#X obj 502 721 spigot;
#X obj 542 702 tgl 15 0 empty empty empty 17 7 0 10 -262144 -1 -1 0
1;
#X obj 504 747 > 1;
#X obj 504 771 sel 1;
#X obj 453 928 spigot;
#X obj 485 909 tgl 15 0 empty empty empty 17 7 0 10 -262144 -1 -1 0
1;
#X obj 461 971 spigot;
#X obj 490 951 tgl 15 0 empty empty empty 17 7 0 10 -262144 -1 -1 0
1;
#X obj 433 889 spigot;
#X obj 472 870 tgl 15 0 empty empty empty 17 7 0 10 -262144 -1 -1 0
1;
#X obj 411 861 spigot;
#X obj 448 842 tgl 15 0 empty empty empty 17 7 0 10 -262144 -1 -1 0
1;
#X text 792 618 port number;
#X obj 631 637 oscparse;
#X obj 631 658 list trim;
#X obj 614 1004 vsl 15 128 -100 100 0 0 empty empty empty 0 -9 0 10
-262144 -1 -1 0 1;
#X obj 636 1004 vsl 15 128 -100 100 0 0 empty empty empty 0 -9 0 10
-262144 -1 -1 0 1;
#X obj 658 1005 vsl 15 128 -1000 1000 0 0 empty empty empty 0 -9 0
10 -262144 -1 -1 0 1;
#X obj 794 792 bng 45 250 50 0 empty empty empty 17 7 0 10 -262144
-1 -1;
#X obj 697 1007 vsl 15 128 10000 100000 0 0 empty empty empty 0 -9
0 10 -262144 -1 -1 0 1;
#X obj 631 703 unpack f f f f f f f;
#X obj 719 1006 vsl 15 128 10000 100000 0 0 empty empty empty 0 -9
0 10 -262144 -1 -1 0 1;
#X obj 745 1006 vsl 15 128 10000 100000 0 0 empty empty empty 0 -9
0 10 -262144 -1 -1 0 1;
#X obj 768 1007 vsl 15 128 10000 100000 0 0 empty empty empty 0 -9
0 10 -262144 -1 -1 0 1;
#X text 621 1142 accel;
#X text 703 1143 touch;
#X obj 631 680 route acceltouch piezo;
#X obj 794 652 speedlim 5;
#X floatatom 834 746 5 0 0 0 - - -;
#X text 796 840 piezo;
#X obj 610 864 spigot;
#X obj 658 843 tgl 15 0 empty empty empty 17 7 0 10 -262144 -1 -1 0
1;
#X obj 623 935 spigot;
#X obj 660 916 tgl 15 0 empty empty empty 17 7 0 10 -262144 -1 -1 0
1;
#X obj 646 968 spigot;
#X obj 679 949 tgl 15 0 empty empty empty 17 7 0 10 -262144 -1 -1 0
1;
#X obj 793 720 spigot;
#X obj 833 701 tgl 15 0 empty empty empty 17 7 0 10 -262144 -1 -1 0
1;
#X obj 795 746 > 1;
#X obj 795 770 sel 1;
#X obj 744 927 spigot;
#X obj 776 908 tgl 15 0 empty empty empty 17 7 0 10 -262144 -1 -1 0
1;
#X obj 752 970 spigot;
#X obj 781 950 tgl 15 0 empty empty empty 17 7 0 10 -262144 -1 -1 0
1;
#X obj 724 888 spigot;
#X obj 763 869 tgl 15 0 empty empty empty 17 7 0 10 -262144 -1 -1 0
1;
#X obj 702 860 spigot;
#X obj 739 841 tgl 15 0 empty empty empty 17 7 0 10 -262144 -1 -1 0
1;
#X text 1097 625 port number;
#X obj 936 644 oscparse;
#X obj 936 665 list trim;
#X obj 919 1011 vsl 15 128 -100 100 0 0 empty empty empty 0 -9 0 10
-262144 -1 -1 0 1;
#X obj 941 1011 vsl 15 128 -100 100 0 0 empty empty empty 0 -9 0 10
-262144 -1 -1 0 1;
#X obj 963 1012 vsl 15 128 -1000 1000 0 0 empty empty empty 0 -9 0
10 -262144 -1 -1 0 1;
#X obj 1099 799 bng 45 250 50 0 empty empty empty 17 7 0 10 -262144
-1 -1;
#X obj 1002 1014 vsl 15 128 10000 100000 0 0 empty empty empty 0 -9
0 10 -262144 -1 -1 0 1;
#X obj 936 710 unpack f f f f f f f;
#X obj 1024 1013 vsl 15 128 10000 100000 0 0 empty empty empty 0 -9
0 10 -262144 -1 -1 0 1;
#X obj 1050 1013 vsl 15 128 10000 100000 0 0 empty empty empty 0 -9
0 10 -262144 -1 -1 0 1;
#X obj 1073 1014 vsl 15 128 10000 100000 0 0 empty empty empty 0 -9
0 10 -262144 -1 -1 0 1;
#X text 926 1149 accel;
#X text 1008 1150 touch;
#X obj 936 687 route acceltouch piezo;
#X obj 1099 659 speedlim 5;
#X floatatom 1139 753 5 0 0 0 - - -;
#X text 1101 847 piezo;
#X obj 915 871 spigot;
#X obj 963 850 tgl 15 0 empty empty empty 17 7 0 10 -262144 -1 -1 0
1;
#X obj 928 942 spigot;
#X obj 965 923 tgl 15 0 empty empty empty 17 7 0 10 -262144 -1 -1 0
1;
#X obj 951 975 spigot;
#X obj 984 956 tgl 15 0 empty empty empty 17 7 0 10 -262144 -1 -1 0
1;
#X obj 1098 727 spigot;
#X obj 1138 708 tgl 15 0 empty empty empty 17 7 0 10 -262144 -1 -1
0 1;
#X obj 1100 753 > 1;
#X obj 1100 777 sel 1;
#X obj 1049 934 spigot;
#X obj 1081 915 tgl 15 0 empty empty empty 17 7 0 10 -262144 -1 -1
0 1;
#X obj 1057 977 spigot;
#X obj 1086 957 tgl 15 0 empty empty empty 17 7 0 10 -262144 -1 -1
0 1;
#X obj 1029 895 spigot;
#X obj 1068 876 tgl 15 0 empty empty empty 17 7 0 10 -262144 -1 -1
0 1;
#X obj 1007 867 spigot;
#X obj 1044 848 tgl 15 0 empty empty empty 17 7 0 10 -262144 -1 -1
0 1;
#X obj 39 618 netreceive -u -b 44445;
#X obj 340 616 netreceive -u -b 44446;
#X obj 631 615 netreceive -u -b 44447;
#X obj 936 622 netreceive -u -b 44448;
#X obj 316 174 s two_accelx;
#X obj 314 203 s two_accely;
#X obj 315 234 s two_accelz;
#X obj 415 151 s two_t1;
#X obj 413 180 s two_t2;
#X obj 414 211 s two_t3;
#X obj 414 237 s two_t4;
#X obj 518 92 s two_piezo;
#X obj 607 173 s three_accelx;
#X obj 605 202 s three_accely;
#X obj 606 233 s three_accelz;
#X obj 706 150 s three_t1;
#X obj 704 179 s three_t2;
#X obj 705 210 s three_t3;
#X obj 705 236 s three_t4;
#X obj 809 91 s three_piezo;
#X obj 912 180 s four_accelx;
#X obj 910 209 s four_accely;
#X obj 910 240 s four_accelz;
#X obj 1114 98 s four_piezo;
#X obj 6 760 s five_accelx;
#X obj 5 789 s five_accely;
#X obj 6 820 s five_accelz;
#X obj 106 737 s five_t1;
#X obj 105 766 s five_t2;
#X obj 105 797 s five_t3;
#X obj 105 823 s five_t4;
#X obj 209 678 s five_piezo;
#X obj 308 758 s six_accelx;
#X obj 306 787 s six_accely;
#X obj 307 818 s six_accelz;
#X obj 407 735 s six_t1;
#X obj 405 764 s six_t2;
#X obj 406 795 s six_t3;
#X obj 406 821 s six_t4;
#X obj 510 676 s six_piezo;
#X obj 599 757 s seven_accelx;
#X obj 597 786 s seven_accely;
#X obj 598 817 s seven_accelz;
#X obj 698 734 s seven_t1;
#X obj 696 763 s seven_t2;
#X obj 697 794 s seven_t3;
#X obj 697 820 s seven_t4;
#X obj 801 675 s seven_piezo;
#X obj 904 764 s eight_accelx;
#X obj 902 793 s eight_accely;
#X obj 903 824 s eight_accelz;
#X obj 1003 741 s eight_t1;
#X obj 1001 770 s eight_t2;
#X obj 1002 801 s eight_t3;
#X obj 1002 827 s eight_t4;
#X obj 1106 682 s eight_piezo;
#X floatatom 34 588 5 0 0 0 - - -;
#X floatatom 114 584 7 0 0 0 - - -;
#X obj 841 916 bang;
#X obj 841 895 speedlim 100;
#X obj 840 935 s eightActive;
#X obj 252 335 bang;
#X obj 252 314 speedlim 100;
#X obj 251 354 s twoActive;
#X obj 556 337 bang;
#X obj 556 316 speedlim 100;
#X obj 555 356 s threeActive;
#X obj 854 351 bang;
#X obj 854 330 speedlim 100;
#X obj 853 370 s fourActive;
#X obj 244 927 bang;
#X obj 244 906 speedlim 100;
#X obj 243 946 s sixActive;
#X obj 529 899 bang;
#X obj 529 878 speedlim 100;
#X obj 528 918 s sevenActive;
#X obj 210 1035 bang;
#X obj 210 1014 speedlim 100;
#X obj 209 1054 s fiveActive;
#X obj 223 425 bang;
#X obj 223 404 speedlim 100;
#X obj 222 444 s oneActive;
#X floatatom 841 443 5 0 0 0 - - -;
#X floatatom 872 471 5 0 0 0 - - -;
#X floatatom 869 525 5 0 0 0 - - -;
#X floatatom 180 574 5 0 0 0 - - -;
#X obj 416 420 vsl 15 128 50000 200000 0 0 empty empty empty 0 -9 0
10 -262144 -1 -1 0 1;
#X obj 439 421 vsl 15 128 50000 200000 0 0 empty empty empty 0 -9 0
10 -262144 -1 -1 0 1;
#X obj 767 426 vsl 15 128 50000 200000 0 0 empty empty empty 0 -9 0
10 -262144 -1 -1 0 1;
#X obj 790 427 vsl 15 128 50000 200000 0 0 empty empty empty 0 -9 0
10 -262144 -1 -1 0 1;
#X obj 721 423 vsl 15 128 50000 200000 0 0 empty empty empty 0 -9 0
10 -262144 -1 -1 0 1;
#X obj 744 424 vsl 15 128 50000 200000 0 0 empty empty empty 0 -9 0
10 -262144 -1 -1 0 1;
#X obj 1092 431 vsl 15 128 50000 200000 0 0 empty empty empty 0 -9
0 10 -262144 -1 -1 0 1;
#X obj 1115 432 vsl 15 128 50000 200000 0 0 empty empty empty 0 -9
0 10 -262144 -1 -1 0 1;
#X obj 1046 428 vsl 15 128 50000 200000 0 0 empty empty empty 0 -9
0 10 -262144 -1 -1 0 1;
#X obj 1069 429 vsl 15 128 50000 200000 0 0 empty empty empty 0 -9
0 10 -262144 -1 -1 0 1;
#X connect 1 0 2 0;
#X connect 2 0 14 0;
#X connect 3 0 350 0;
#X connect 7 0 351 0;
#X connect 8 0 19 0;
#X connect 8 0 22 0;
#X connect 8 0 374 0;
#X connect 8 1 20 0;
#X connect 8 1 24 0;
#X connect 8 2 21 0;
#X connect 8 2 26 0;
#X connect 8 3 39 0;
#X connect 8 3 43 0;
#X connect 8 4 40 0;
#X connect 8 4 37 0;
#X connect 8 5 41 0;
#X connect 8 5 33 0;
#X connect 8 6 42 0;
#X connect 8 6 35 0;
#X connect 14 0 8 0;
#X connect 14 1 16 0;
#X connect 15 0 1 0;
#X connect 16 0 28 0;
#X connect 16 0 29 0;
#X connect 22 0 3 0;
#X connect 23 0 22 1;
#X connect 24 0 4 0;
#X connect 25 0 24 1;
#X connect 26 0 5 0;
#X connect 27 0 26 1;
#X connect 29 0 31 0;
#X connect 29 0 17 0;
#X connect 30 0 29 1;
#X connect 31 0 32 0;
#X connect 32 0 6 0;
#X connect 33 0 10 0;
#X connect 34 0 33 1;
#X connect 35 0 11 0;
#X connect 36 0 35 1;
#X connect 37 0 9 0;
#X connect 38 0 37 1;
#X connect 43 0 7 0;
#X connect 44 0 43 1;
#X connect 46 0 47 0;
#X connect 47 0 57 0;
#X connect 52 0 61 0;
#X connect 52 0 298 0;
#X connect 52 0 356 0;
#X connect 52 1 63 0;
#X connect 52 1 299 0;
#X connect 52 2 65 0;
#X connect 52 2 300 0;
#X connect 52 3 77 0;
#X connect 52 3 301 0;
#X connect 52 4 75 0;
#X connect 52 4 302 0;
#X connect 52 5 71 0;
#X connect 52 5 303 0;
#X connect 52 6 73 0;
#X connect 52 6 304 0;
#X connect 57 0 52 0;
#X connect 57 1 58 0;
#X connect 58 0 67 0;
#X connect 58 0 305 0;
#X connect 61 0 48 0;
#X connect 62 0 61 1;
#X connect 63 0 49 0;
#X connect 64 0 63 1;
#X connect 65 0 50 0;
#X connect 66 0 65 1;
#X connect 67 0 69 0;
#X connect 67 0 59 0;
#X connect 68 0 67 1;
#X connect 69 0 70 0;
#X connect 70 0 51 0;
#X connect 71 0 53 0;
#X connect 72 0 71 1;
#X connect 73 0 54 0;
#X connect 74 0 73 1;
#X connect 75 0 381 0;
#X connect 76 0 75 1;
#X connect 77 0 380 0;
#X connect 78 0 77 1;
#X connect 79 0 46 0;
#X connect 81 0 82 0;
#X connect 82 0 90 0;
#X connect 87 0 94 0;
#X connect 87 0 306 0;
#X connect 87 0 359 0;
#X connect 87 1 96 0;
#X connect 87 1 307 0;
#X connect 87 2 98 0;
#X connect 87 2 308 0;
#X connect 87 3 110 0;
#X connect 87 3 309 0;
#X connect 87 4 108 0;
#X connect 87 4 310 0;
#X connect 87 5 104 0;
#X connect 87 5 311 0;
#X connect 87 6 106 0;
#X connect 87 6 312 0;
#X connect 90 0 87 0;
#X connect 90 1 91 0;
#X connect 91 0 100 0;
#X connect 91 0 313 0;
#X connect 94 0 83 0;
#X connect 95 0 94 1;
#X connect 96 0 84 0;
#X connect 97 0 96 1;
#X connect 98 0 85 0;
#X connect 99 0 98 1;
#X connect 100 0 102 0;
#X connect 100 0 92 0;
#X connect 101 0 100 1;
#X connect 102 0 103 0;
#X connect 103 0 86 0;
#X connect 104 0 382 0;
#X connect 105 0 104 1;
#X connect 106 0 383 0;
#X connect 107 0 106 1;
#X connect 108 0 385 0;
#X connect 109 0 108 1;
#X connect 110 0 384 0;
#X connect 111 0 110 1;
#X connect 112 0 81 0;
#X connect 114 0 115 0;
#X connect 115 0 123 0;
#X connect 120 0 127 0;
#X connect 120 0 314 0;
#X connect 120 0 362 0;
#X connect 120 1 129 0;
#X connect 120 1 315 0;
#X connect 120 2 131 0;
#X connect 120 2 316 0;
#X connect 120 3 143 0;
#X connect 120 3 147 0;
#X connect 120 4 144 0;
#X connect 120 4 141 0;
#X connect 120 5 145 0;
#X connect 120 5 137 0;
#X connect 120 6 146 0;
#X connect 120 6 139 0;
#X connect 123 0 120 0;
#X connect 123 1 124 0;
#X connect 124 0 133 0;
#X connect 124 0 317 0;
#X connect 127 0 116 0;
#X connect 127 0 376 0;
#X connect 128 0 127 1;
#X connect 129 0 117 0;
#X connect 129 0 377 0;
#X connect 130 0 129 1;
#X connect 131 0 118 0;
#X connect 131 0 378 0;
#X connect 132 0 131 1;
#X connect 133 0 135 0;
#X connect 133 0 125 0;
#X connect 134 0 133 1;
#X connect 135 0 136 0;
#X connect 136 0 119 0;
#X connect 137 0 386 0;
#X connect 138 0 137 1;
#X connect 139 0 387 0;
#X connect 140 0 139 1;
#X connect 141 0 389 0;
#X connect 142 0 141 1;
#X connect 147 0 388 0;
#X connect 148 0 147 1;
#X connect 149 0 114 0;
#X connect 151 0 152 0;
#X connect 152 0 164 0;
#X connect 158 0 168 0;
#X connect 158 0 318 0;
#X connect 158 0 371 0;
#X connect 158 1 170 0;
#X connect 158 1 319 0;
#X connect 158 2 172 0;
#X connect 158 2 320 0;
#X connect 158 3 184 0;
#X connect 158 3 321 0;
#X connect 158 4 182 0;
#X connect 158 4 322 0;
#X connect 158 5 178 0;
#X connect 158 5 323 0;
#X connect 158 6 180 0;
#X connect 158 6 324 0;
#X connect 164 0 158 0;
#X connect 164 1 165 0;
#X connect 165 0 174 0;
#X connect 165 0 325 0;
#X connect 168 0 153 0;
#X connect 169 0 168 1;
#X connect 170 0 154 0;
#X connect 171 0 170 1;
#X connect 172 0 155 0;
#X connect 173 0 172 1;
#X connect 174 0 176 0;
#X connect 174 0 166 0;
#X connect 175 0 174 1;
#X connect 176 0 177 0;
#X connect 177 0 156 0;
#X connect 178 0 160 0;
#X connect 179 0 178 1;
#X connect 180 0 161 0;
#X connect 181 0 180 1;
#X connect 182 0 159 0;
#X connect 183 0 182 1;
#X connect 184 0 157 0;
#X connect 185 0 184 1;
#X connect 187 0 188 0;
#X connect 188 0 200 0;
#X connect 194 0 204 0;
#X connect 194 0 326 0;
#X connect 194 0 365 0;
#X connect 194 1 206 0;
#X connect 194 1 327 0;
#X connect 194 2 208 0;
#X connect 194 2 328 0;
#X connect 194 3 220 0;
#X connect 194 3 329 0;
#X connect 194 4 218 0;
#X connect 194 4 330 0;
#X connect 194 5 214 0;
#X connect 194 5 331 0;
#X connect 194 6 216 0;
#X connect 194 6 332 0;
#X connect 200 0 194 0;
#X connect 200 1 201 0;
#X connect 201 0 210 0;
#X connect 201 0 333 0;
#X connect 204 0 189 0;
#X connect 205 0 204 1;
#X connect 206 0 190 0;
#X connect 207 0 206 1;
#X connect 208 0 191 0;
#X connect 209 0 208 1;
#X connect 210 0 212 0;
#X connect 210 0 202 0;
#X connect 211 0 210 1;
#X connect 212 0 213 0;
#X connect 213 0 192 0;
#X connect 214 0 196 0;
#X connect 215 0 214 1;
#X connect 216 0 197 0;
#X connect 217 0 216 1;
#X connect 218 0 195 0;
#X connect 219 0 218 1;
#X connect 220 0 193 0;
#X connect 221 0 220 1;
#X connect 223 0 224 0;
#X connect 224 0 236 0;
#X connect 230 0 240 0;
#X connect 230 0 334 0;
#X connect 230 0 368 0;
#X connect 230 1 242 0;
#X connect 230 1 335 0;
#X connect 230 2 244 0;
#X connect 230 2 336 0;
#X connect 230 3 256 0;
#X connect 230 3 337 0;
#X connect 230 4 254 0;
#X connect 230 4 338 0;
#X connect 230 5 250 0;
#X connect 230 5 339 0;
#X connect 230 6 252 0;
#X connect 230 6 340 0;
#X connect 236 0 230 0;
#X connect 236 1 237 0;
#X connect 237 0 246 0;
#X connect 237 0 341 0;
#X connect 240 0 225 0;
#X connect 241 0 240 1;
#X connect 242 0 226 0;
#X connect 243 0 242 1;
#X connect 244 0 227 0;
#X connect 245 0 244 1;
#X connect 246 0 248 0;
#X connect 246 0 238 0;
#X connect 247 0 246 1;
#X connect 248 0 249 0;
#X connect 249 0 228 0;
#X connect 250 0 232 0;
#X connect 251 0 250 1;
#X connect 252 0 233 0;
#X connect 253 0 252 1;
#X connect 254 0 231 0;
#X connect 255 0 254 1;
#X connect 256 0 229 0;
#X connect 257 0 256 1;
#X connect 259 0 260 0;
#X connect 260 0 272 0;
#X connect 266 0 276 0;
#X connect 266 0 342 0;
#X connect 266 0 353 0;
#X connect 266 1 278 0;
#X connect 266 1 343 0;
#X connect 266 2 280 0;
#X connect 266 2 344 0;
#X connect 266 3 292 0;
#X connect 266 3 345 0;
#X connect 266 4 290 0;
#X connect 266 4 346 0;
#X connect 266 5 286 0;
#X connect 266 5 347 0;
#X connect 266 6 288 0;
#X connect 266 6 348 0;
#X connect 272 0 266 0;
#X connect 272 1 273 0;
#X connect 273 0 282 0;
#X connect 273 0 349 0;
#X connect 276 0 261 0;
#X connect 277 0 276 1;
#X connect 278 0 262 0;
#X connect 279 0 278 1;
#X connect 280 0 263 0;
#X connect 281 0 280 1;
#X connect 282 0 284 0;
#X connect 282 0 274 0;
#X connect 283 0 282 1;
#X connect 284 0 285 0;
#X connect 285 0 264 0;
#X connect 286 0 268 0;
#X connect 287 0 286 1;
#X connect 288 0 269 0;
#X connect 289 0 288 1;
#X connect 290 0 267 0;
#X connect 291 0 290 1;
#X connect 292 0 265 0;
#X connect 293 0 292 1;
#X connect 294 0 151 0;
#X connect 295 0 187 0;
#X connect 296 0 223 0;
#X connect 297 0 259 0;
#X connect 352 0 354 0;
#X connect 353 0 352 0;
#X connect 355 0 357 0;
#X connect 356 0 355 0;
#X connect 358 0 360 0;
#X connect 359 0 358 0;
#X connect 361 0 363 0;
#X connect 362 0 361 0;
#X connect 364 0 366 0;
#X connect 365 0 364 0;
#X connect 367 0 369 0;
#X connect 368 0 367 0;
#X connect 370 0 372 0;
#X connect 371 0 370 0;
#X connect 373 0 375 0;
#X connect 374 0 373 0;
#X restore 384 26 pd receivers;
#N canvas -91 92 1440 628 senders 0;
#X obj 15 10 r one_accelx;
#X obj 15 65 /;
#X obj 33 35 r accel_factor;
#X obj 14 87 + 1;
#X obj 14 109 * 0.5;
#X text 59 108 0 -1;
#X obj 141 65 /;
#X obj 159 35 r accel_factor;
#X obj 140 87 + 1;
#X obj 140 109 * 0.5;
#X text 185 108 0 -1;
#X obj 141 10 r one_accely;
#X obj 267 66 /;
#X obj 280 38 r accel_factor;
#X obj 266 88 + 1;
#X obj 266 110 * 0.5;
#X text 311 109 0 -1;
#X obj 267 11 r one_accelz;
#X obj 14 179 spigot;
#X obj 58 180 tgl 15 0 empty empty empty 17 7 0 10 -262144 -1 -1 0
1;
#X obj 14 132 * 127;
#X obj 14 155 change;
#X obj 139 178 spigot;
#X obj 184 183 tgl 15 0 empty empty empty 17 7 0 10 -262144 -1 -1 0
1;
#X obj 140 129 * 127;
#X obj 140 158 change;
#X obj 188 162 r oneAccelOn;
#X obj 269 180 spigot;
#X obj 313 181 tgl 15 0 empty empty empty 17 7 0 10 -262144 -1 -1 0
1;
#X obj 269 133 * 127;
#X obj 269 161 change;
#X obj 317 160 r oneAccelOn;
#X obj 13 201 ctlout 11;
#X obj 139 202 ctlout 12;
#X obj 268 206 ctlout 13;
#X obj 427 66 /;
#X obj 426 110 * 0.5;
#X text 471 109 0 -1;
#X obj 553 66 /;
#X obj 552 110 * 0.5;
#X text 597 109 0 -1;
#X obj 679 67 /;
#X obj 678 111 * 0.5;
#X text 723 110 0 -1;
#X obj 426 180 spigot;
#X obj 470 181 tgl 15 0 empty empty empty 17 7 0 10 -262144 -1 -1 0
1;
#X obj 426 129 * 127;
#X obj 426 156 change;
#X obj 551 179 spigot;
#X obj 596 184 tgl 15 0 empty empty empty 17 7 0 10 -262144 -1 -1 0
1;
#X obj 552 131 * 127;
#X obj 552 159 change;
#X obj 681 181 spigot;
#X obj 725 182 tgl 15 0 empty empty empty 17 7 0 10 -262144 -1 -1 0
1;
#X obj 681 134 * 127;
#X obj 681 161 change;
#X obj 831 67 /;
#X obj 830 111 * 0.5;
#X text 875 110 0 -1;
#X obj 957 68 /;
#X obj 956 112 * 0.5;
#X text 1001 111 0 -1;
#X obj 829 180 spigot;
#X obj 874 185 tgl 15 0 empty empty empty 17 7 0 10 -262144 -1 -1 0
1;
#X obj 830 132 * 127;
#X obj 830 160 change;
#X obj 959 182 spigot;
#X obj 1003 183 tgl 15 0 empty empty empty 17 7 0 10 -262144 -1 -1
0 1;
#X obj 959 135 * 127;
#X obj 959 163 change;
#X obj 427 11 r one_t1;
#X obj 553 11 r one_t2;
#X obj 679 12 r one_t3;
#X obj 831 12 r one_t4;
#X obj 957 13 r one_t5;
#X obj 445 36 r t_factor;
#X obj 571 36 r t_factor;
#X obj 692 39 r t_factor;
#X obj 849 37 r t_factor;
#X obj 970 40 r t_factor;
#X obj 474 160 r onetOn;
#X obj 600 163 r onetOn;
#X obj 729 161 r onetOn;
#X obj 878 164 r onetOn;
#X obj 1007 162 r onetOn;
#X obj 425 202 ctlout 14;
#X obj 551 203 ctlout 15;
#X obj 680 207 ctlout 16;
#X obj 829 204 ctlout 17;
#X obj 958 208 ctlout 18;
#X obj 1094 70 /;
#X obj 1093 92 + 1;
#X obj 1093 114 * 0.5;
#X text 1138 113 0 -1;
#X obj 1096 184 spigot;
#X obj 1140 185 tgl 15 0 empty empty empty 17 7 0 10 -262144 -1 -1
0 1;
#X obj 1096 137 * 127;
#X obj 1096 160 change;
#X obj 1094 15 r one_piezo;
#X obj 1107 42 r piezo_factor;
#X obj 1140 159 r onePiezoOn;
#X obj 1496 23 spigot;
#X obj 1540 24 tgl 15 0 empty empty empty 17 7 0 10 -262144 -1 -1 0
1;
#X obj 1560 22 r onePiezoDet;
#X obj 12 330 /;
#X obj 30 300 r accel_factor;
#X obj 11 352 + 1;
#X obj 11 374 * 0.5;
#X text 56 373 0 -1;
#X obj 138 330 /;
#X obj 156 300 r accel_factor;
#X obj 137 352 + 1;
#X obj 137 374 * 0.5;
#X text 182 373 0 -1;
#X obj 264 331 /;
#X obj 277 303 r accel_factor;
#X obj 263 353 + 1;
#X obj 263 375 * 0.5;
#X text 308 374 0 -1;
#X obj 11 444 spigot;
#X obj 55 445 tgl 15 0 empty empty empty 17 7 0 10 -262144 -1 -1 0
1;
#X obj 11 397 * 127;
#X obj 11 420 change;
#X obj 136 443 spigot;
#X obj 181 448 tgl 15 0 empty empty empty 17 7 0 10 -262144 -1 -1 0
1;
#X obj 137 393 * 127;
#X obj 137 423 change;
#X obj 266 445 spigot;
#X obj 310 446 tgl 15 0 empty empty empty 17 7 0 10 -262144 -1 -1 0
1;
#X obj 265 395 * 127;
#X obj 266 421 change;
#X obj 424 331 /;
#X obj 423 353 + 1;
#X obj 423 375 * 0.5;
#X text 468 374 0 -1;
#X obj 550 331 /;
#X obj 549 353 + 1;
#X obj 549 375 * 0.5;
#X text 594 374 0 -1;
#X obj 676 332 /;
#X obj 675 354 + 1;
#X obj 675 376 * 0.5;
#X text 720 375 0 -1;
#X obj 423 445 spigot;
#X obj 467 446 tgl 15 0 empty empty empty 17 7 0 10 -262144 -1 -1 0
1;
#X obj 422 395 * 127;
#X obj 423 421 change;
#X obj 548 444 spigot;
#X obj 593 449 tgl 15 0 empty empty empty 17 7 0 10 -262144 -1 -1 0
1;
#X obj 548 395 * 127;
#X obj 549 424 change;
#X obj 678 446 spigot;
#X obj 722 447 tgl 15 0 empty empty empty 17 7 0 10 -262144 -1 -1 0
1;
#X obj 676 395 * 127;
#X obj 678 422 change;
#X obj 828 332 /;
#X obj 827 354 + 1;
#X obj 827 376 * 0.5;
#X text 872 375 0 -1;
#X obj 954 333 /;
#X obj 953 355 + 1;
#X obj 953 377 * 0.5;
#X text 998 376 0 -1;
#X obj 826 445 spigot;
#X obj 871 450 tgl 15 0 empty empty empty 17 7 0 10 -262144 -1 -1 0
1;
#X obj 827 398 * 127;
#X obj 827 425 change;
#X obj 956 447 spigot;
#X obj 1000 448 tgl 15 0 empty empty empty 17 7 0 10 -262144 -1 -1
0 1;
#X obj 956 400 * 127;
#X obj 956 423 change;
#X obj 442 301 r t_factor;
#X obj 568 301 r t_factor;
#X obj 689 304 r t_factor;
#X obj 846 302 r t_factor;
#X obj 967 305 r t_factor;
#X obj 1091 335 /;
#X obj 1090 357 + 1;
#X obj 1090 379 * 0.5;
#X text 1135 378 0 -1;
#X obj 1093 449 spigot;
#X obj 1137 450 tgl 15 0 empty empty empty 17 7 0 10 -262144 -1 -1
0 1;
#X obj 1093 402 * 127;
#X obj 1093 425 change;
#X obj 1104 307 r piezo_factor;
#X obj 12 275 r two_accelx;
#X obj 138 275 r two_accely;
#X obj 185 427 r twoAccelOn;
#X obj 314 425 r twoAccelOn;
#X obj 264 276 r two_accelz;
#X obj 10 467 ctlout 21;
#X obj 136 467 ctlout 22;
#X obj 265 471 ctlout 23;
#X obj 422 467 ctlout 24;
#X obj 548 468 ctlout 25;
#X obj 677 472 ctlout 26;
#X obj 826 469 ctlout 27;
#X obj 955 473 ctlout 28;
#X obj 424 276 r two_t1;
#X obj 471 425 r twotOn;
#X obj 596 428 r twotOn;
#X obj 550 276 r two_t2;
#X obj 676 277 r two_t3;
#X obj 726 426 r twotOn;
#X obj 875 429 r twotOn;
#X obj 828 277 r two_t4;
#X obj 954 278 r two_t5;
#X obj 1004 427 r twotOn;
#X obj 1137 424 r twoPiezoOn;
#X obj 1091 280 r two_piezo;
#X obj 11 575 /;
#X obj 29 545 r accel_factor;
#X obj 10 597 + 1;
#X obj 10 619 * 0.5;
#X text 55 618 0 -1;
#X obj 137 575 /;
#X obj 155 545 r accel_factor;
#X obj 136 597 + 1;
#X obj 136 619 * 0.5;
#X text 181 618 0 -1;
#X obj 263 576 /;
#X obj 276 548 r accel_factor;
#X obj 262 598 + 1;
#X obj 262 620 * 0.5;
#X text 307 619 0 -1;
#X obj 10 689 spigot;
#X obj 54 690 tgl 15 0 empty empty empty 17 7 0 10 -262144 -1 -1 0
1;
#X obj 10 642 * 127;
#X obj 10 665 change;
#X obj 135 688 spigot;
#X obj 180 693 tgl 15 0 empty empty empty 17 7 0 10 -262144 -1 -1 0
1;
#X obj 136 638 * 127;
#X obj 135 665 change;
#X obj 265 690 spigot;
#X obj 309 691 tgl 15 0 empty empty empty 17 7 0 10 -262144 -1 -1 0
1;
#X obj 261 638 * 127;
#X obj 265 666 change;
#X obj 423 576 /;
#X obj 422 598 + 1;
#X obj 422 620 * 0.5;
#X text 467 619 0 -1;
#X obj 549 576 /;
#X obj 548 598 + 1;
#X obj 548 620 * 0.5;
#X text 593 619 0 -1;
#X obj 675 577 /;
#X obj 674 599 + 1;
#X obj 674 621 * 0.5;
#X text 719 620 0 -1;
#X obj 422 690 spigot;
#X obj 466 691 tgl 15 0 empty empty empty 17 7 0 10 -262144 -1 -1 0
1;
#X obj 422 640 * 127;
#X obj 422 666 change;
#X obj 547 689 spigot;
#X obj 592 694 tgl 15 0 empty empty empty 17 7 0 10 -262144 -1 -1 0
1;
#X obj 549 639 * 127;
#X obj 548 669 change;
#X obj 677 691 spigot;
#X obj 721 692 tgl 15 0 empty empty empty 17 7 0 10 -262144 -1 -1 0
1;
#X obj 673 641 * 127;
#X obj 677 667 change;
#X obj 827 577 /;
#X obj 826 599 + 1;
#X obj 826 621 * 0.5;
#X text 871 620 0 -1;
#X obj 953 578 /;
#X obj 952 600 + 1;
#X obj 952 622 * 0.5;
#X text 997 621 0 -1;
#X obj 825 690 spigot;
#X obj 870 695 tgl 15 0 empty empty empty 17 7 0 10 -262144 -1 -1 0
1;
#X obj 825 641 * 127;
#X obj 826 670 change;
#X obj 955 692 spigot;
#X obj 999 693 tgl 15 0 empty empty empty 17 7 0 10 -262144 -1 -1 0
1;
#X obj 953 642 * 127;
#X obj 955 668 change;
#X obj 441 546 r t_factor;
#X obj 567 546 r t_factor;
#X obj 688 549 r t_factor;
#X obj 845 547 r t_factor;
#X obj 966 550 r t_factor;
#X obj 1090 580 /;
#X obj 1089 602 + 1;
#X obj 1089 624 * 0.5;
#X text 1134 623 0 -1;
#X obj 1092 694 spigot;
#X obj 1136 695 tgl 15 0 empty empty empty 17 7 0 10 -262144 -1 -1
0 1;
#X obj 1092 647 * 127;
#X obj 1092 670 change;
#X obj 1103 552 r piezo_factor;
#X obj 9 712 ctlout 31;
#X obj 135 712 ctlout 32;
#X obj 264 716 ctlout 33;
#X obj 421 712 ctlout 34;
#X obj 547 713 ctlout 35;
#X obj 676 717 ctlout 36;
#X obj 825 714 ctlout 37;
#X obj 954 718 ctlout 38;
#X obj 11 520 r three_accelx;
#X obj 137 520 r three_accely;
#X obj 263 521 r three_accelz;
#X obj 423 521 r three_t1;
#X obj 549 521 r three_t2;
#X obj 675 522 r three_t3;
#X obj 827 522 r three_t4;
#X obj 953 523 r three_t5;
#X obj 1090 525 r three_piezo;
#X obj 1136 669 r threePiezoOn;
#X obj 1003 672 r threetOn;
#X obj 874 674 r threetOn;
#X obj 725 671 r threetOn;
#X obj 595 673 r threetOn;
#X obj 470 670 r threetOn;
#X obj 312 670 r threeAccelOn;
#X obj 184 672 r threeAccelOn;
#X obj 11 839 /;
#X obj 10 883 * 0.5;
#X text 55 882 0 -1;
#X obj 137 839 /;
#X text 181 882 0 -1;
#X obj 263 840 /;
#X text 307 883 0 -1;
#X obj 10 953 spigot;
#X obj 54 954 tgl 15 0 empty empty empty 17 7 0 10 -262144 -1 -1 0
1;
#X obj 10 906 * 127;
#X obj 10 929 change;
#X obj 135 952 spigot;
#X obj 180 957 tgl 15 0 empty empty empty 17 7 0 10 -262144 -1 -1 0
1;
#X obj 136 903 * 127;
#X obj 136 928 change;
#X obj 265 954 spigot;
#X obj 309 955 tgl 15 0 empty empty empty 17 7 0 10 -262144 -1 -1 0
1;
#X obj 263 903 * 127;
#X obj 265 930 change;
#X obj 423 840 /;
#X obj 422 862 + 1;
#X obj 422 884 * 0.5;
#X text 467 883 0 -1;
#X obj 549 840 /;
#X obj 548 862 + 1;
#X obj 548 884 * 0.5;
#X text 593 883 0 -1;
#X obj 675 841 /;
#X obj 674 863 + 1;
#X obj 674 885 * 0.5;
#X text 719 884 0 -1;
#X obj 422 954 spigot;
#X obj 466 955 tgl 15 0 empty empty empty 17 7 0 10 -262144 -1 -1 0
1;
#X obj 421 902 * 127;
#X obj 422 930 change;
#X obj 547 953 spigot;
#X obj 592 958 tgl 15 0 empty empty empty 17 7 0 10 -262144 -1 -1 0
1;
#X obj 548 903 * 127;
#X obj 548 933 change;
#X obj 677 955 spigot;
#X obj 721 956 tgl 15 0 empty empty empty 17 7 0 10 -262144 -1 -1 0
1;
#X obj 676 905 * 127;
#X obj 677 931 change;
#X obj 827 841 /;
#X obj 826 863 + 1;
#X obj 826 885 * 0.5;
#X text 871 884 0 -1;
#X obj 953 842 /;
#X obj 952 864 + 1;
#X obj 952 886 * 0.5;
#X text 997 885 0 -1;
#X obj 825 954 spigot;
#X obj 870 959 tgl 15 0 empty empty empty 17 7 0 10 -262144 -1 -1 0
1;
#X obj 826 905 * 127;
#X obj 826 934 change;
#X obj 955 956 spigot;
#X obj 999 957 tgl 15 0 empty empty empty 17 7 0 10 -262144 -1 -1 0
1;
#X obj 951 906 * 127;
#X obj 955 932 change;
#X obj 441 810 r t_factor;
#X obj 567 810 r t_factor;
#X obj 688 813 r t_factor;
#X obj 845 811 r t_factor;
#X obj 966 814 r t_factor;
#X obj 1090 844 /;
#X obj 1089 866 + 1;
#X obj 1089 888 * 0.5;
#X text 1134 887 0 -1;
#X obj 1092 958 spigot;
#X obj 1136 959 tgl 15 0 empty empty empty 17 7 0 10 -262144 -1 -1
0 1;
#X obj 1092 911 * 127;
#X obj 1088 934 change;
#X obj 1103 816 r piezo_factor;
#X obj 1245 779 spigot;
#X obj 1289 780 tgl 15 0 empty empty empty 17 7 0 10 -262144 -1 -1
0 1;
#X obj 1251 969 noteout;
#X obj 1247 797 bang;
#X obj 1247 836 random 50;
#X obj 1250 898 +;
#X obj 11 784 r four_accelx;
#X obj 137 784 r four_accely;
#X obj 263 785 r four_accelz;
#X obj 423 785 r four_t1;
#X obj 549 785 r four_t2;
#X obj 675 786 r four_t3;
#X obj 827 786 r four_t4;
#X obj 953 787 r four_t5;
#X obj 1090 789 r four_piezo;
#X obj 1316 778 r fourPiezoRan;
#X obj 1277 855 r fourPiezoRange;
#X obj 184 936 r fourAccelOn;
#X obj 312 934 r fourAccelOn;
#X obj 470 934 r fourtOn;
#X obj 595 937 r fourtOn;
#X obj 725 935 r fourtOn;
#X obj 874 938 r fourtOn;
#X obj 1003 936 r fourtOn;
#X obj 1136 933 r fourPiezoOn;
#X obj 1251 929 pack f 100 4;
#X obj 9 976 ctlout 41;
#X obj 135 976 ctlout 42;
#X obj 264 980 ctlout 43;
#X obj 421 976 ctlout 44;
#X obj 547 977 ctlout 45;
#X obj 676 981 ctlout 46;
#X obj 825 978 ctlout 47;
#X obj 954 982 ctlout 48;
#X floatatom 217 458 5 0 0 0 - - -;
#X obj 88 342 int;
#X obj 220 375 int;
#X obj 63 645 int;
#X floatatom 91 720 5 0 0 0 - - -;
#X obj 193 636 int;
#X obj 89 862 int;
#X floatatom 83 910 5 0 0 0 - - -;
#X floatatom 86 987 5 0 0 0 - - -;
#X obj 212 896 int;
#X floatatom 219 985 5 0 0 0 - - -;
#X obj 17 1081 /;
#X obj 35 1051 r accel_factor;
#X obj 16 1103 + 1;
#X obj 16 1125 * 0.5;
#X text 61 1124 0 -1;
#X obj 143 1081 /;
#X obj 161 1051 r accel_factor;
#X obj 142 1103 + 1;
#X obj 142 1125 * 0.5;
#X text 187 1124 0 -1;
#X obj 269 1082 /;
#X obj 282 1054 r accel_factor;
#X obj 268 1104 + 1;
#X obj 268 1126 * 0.5;
#X text 313 1125 0 -1;
#X obj 16 1195 spigot;
#X obj 60 1196 tgl 15 0 empty empty empty 17 7 0 10 -262144 -1 -1 0
1;
#X obj 16 1148 * 127;
#X obj 16 1171 change;
#X obj 141 1194 spigot;
#X obj 186 1199 tgl 15 0 empty empty empty 17 7 0 10 -262144 -1 -1
0 1;
#X obj 142 1145 * 127;
#X obj 142 1170 change;
#X obj 271 1196 spigot;
#X obj 315 1197 tgl 15 0 empty empty empty 17 7 0 10 -262144 -1 -1
0 1;
#X obj 270 1145 * 127;
#X obj 271 1172 change;
#X obj 429 1082 /;
#X obj 428 1104 + 1;
#X obj 428 1126 * 0.5;
#X text 473 1125 0 -1;
#X obj 555 1082 /;
#X obj 554 1104 + 1;
#X obj 554 1126 * 0.5;
#X text 599 1125 0 -1;
#X obj 681 1083 /;
#X obj 680 1105 + 1;
#X obj 680 1127 * 0.5;
#X text 725 1126 0 -1;
#X obj 428 1196 spigot;
#X obj 472 1197 tgl 15 0 empty empty empty 17 7 0 10 -262144 -1 -1
0 1;
#X obj 428 1145 * 127;
#X obj 428 1172 change;
#X obj 553 1195 spigot;
#X obj 598 1200 tgl 15 0 empty empty empty 17 7 0 10 -262144 -1 -1
0 1;
#X obj 554 1152 * 127;
#X obj 554 1175 change;
#X obj 683 1197 spigot;
#X obj 727 1198 tgl 15 0 empty empty empty 17 7 0 10 -262144 -1 -1
0 1;
#X obj 683 1150 * 127;
#X obj 683 1173 change;
#X obj 833 1083 /;
#X obj 832 1105 + 1;
#X obj 832 1127 * 0.5;
#X text 877 1126 0 -1;
#X obj 959 1084 /;
#X obj 958 1106 + 1;
#X obj 958 1128 * 0.5;
#X text 1003 1127 0 -1;
#X obj 831 1196 spigot;
#X obj 876 1201 tgl 15 0 empty empty empty 17 7 0 10 -262144 -1 -1
0 1;
#X obj 832 1153 * 127;
#X obj 832 1176 change;
#X obj 961 1198 spigot;
#X obj 1005 1199 tgl 15 0 empty empty empty 17 7 0 10 -262144 -1 -1
0 1;
#X obj 961 1151 * 127;
#X obj 961 1174 change;
#X obj 447 1052 r t_factor;
#X obj 573 1052 r t_factor;
#X obj 694 1055 r t_factor;
#X obj 851 1053 r t_factor;
#X obj 972 1056 r t_factor;
#X obj 1096 1086 /;
#X obj 1095 1108 + 1;
#X obj 1095 1130 * 0.5;
#X text 1140 1129 0 -1;
#X obj 1098 1200 spigot;
#X obj 1142 1201 tgl 15 0 empty empty empty 17 7 0 10 -262144 -1 -1
0 1;
#X obj 1095 1150 * 127;
#X obj 1098 1176 change;
#X obj 1109 1058 r piezo_factor;
#X obj 95 1104 int;
#X floatatom 92 1229 5 0 0 0 - - -;
#X obj 218 1138 int;
#X floatatom 225 1227 5 0 0 0 - - -;
#X obj 17 1026 r five_accelx;
#X obj 140 1023 r five_accely;
#X obj 269 1027 r five_accelz;
#X obj 429 1027 r five_t1;
#X obj 555 1027 r five_t2;
#X obj 681 1028 r five_t3;
#X obj 833 1028 r five_t4;
#X obj 959 1029 r five_t5;
#X obj 1096 1031 r five_piezo;
#X obj 190 1178 r fiveAccelOn;
#X obj 318 1176 r fiveAccelOn;
#X obj 476 1176 r fivetOn;
#X obj 601 1179 r fivetOn;
#X obj 731 1177 r fivetOn;
#X obj 880 1180 r fivetOn;
#X obj 1009 1178 r fivetOn;
#X obj 1142 1175 r fivePiezoOn;
#X obj 15 1218 ctlout 51;
#X obj 141 1218 ctlout 52;
#X obj 270 1222 ctlout 53;
#X obj 427 1218 ctlout 54;
#X obj 553 1219 ctlout 55;
#X obj 682 1223 ctlout 56;
#X obj 831 1220 ctlout 57;
#X obj 960 1224 ctlout 58;
#X obj 311 1154 int;
#X obj 477 1145 int;
#X obj 602 1150 int;
#X obj 734 1148 int;
#X obj 882 1152 int;
#X obj 1012 1150 int;
#X obj 1160 1150 int;
#X obj 16 1323 /;
#X obj 34 1293 r accel_factor;
#X obj 15 1345 + 1;
#X obj 15 1367 * 0.5;
#X text 60 1366 0 -1;
#X obj 142 1323 /;
#X obj 160 1293 r accel_factor;
#X obj 141 1345 + 1;
#X obj 141 1367 * 0.5;
#X text 186 1366 0 -1;
#X obj 268 1324 /;
#X obj 281 1296 r accel_factor;
#X obj 267 1346 + 1;
#X obj 267 1368 * 0.5;
#X text 312 1367 0 -1;
#X obj 15 1437 spigot;
#X obj 59 1438 tgl 15 0 empty empty empty 17 7 0 10 -262144 -1 -1 0
1;
#X obj 15 1390 * 127;
#X obj 15 1413 change;
#X obj 140 1436 spigot;
#X obj 185 1441 tgl 15 0 empty empty empty 17 7 0 10 -262144 -1 -1
0 1;
#X obj 141 1387 * 127;
#X obj 141 1412 change;
#X obj 270 1438 spigot;
#X obj 314 1439 tgl 15 0 empty empty empty 17 7 0 10 -262144 -1 -1
0 1;
#X obj 269 1387 * 127;
#X obj 270 1414 change;
#X obj 428 1324 /;
#X obj 427 1346 + 1;
#X obj 427 1368 * 0.5;
#X text 472 1367 0 -1;
#X obj 554 1324 /;
#X obj 553 1346 + 1;
#X obj 553 1368 * 0.5;
#X text 598 1367 0 -1;
#X obj 680 1325 /;
#X obj 679 1347 + 1;
#X obj 679 1369 * 0.5;
#X text 724 1368 0 -1;
#X obj 427 1438 spigot;
#X obj 471 1439 tgl 15 0 empty empty empty 17 7 0 10 -262144 -1 -1
0 1;
#X obj 427 1387 * 127;
#X obj 427 1414 change;
#X obj 552 1437 spigot;
#X obj 597 1442 tgl 15 0 empty empty empty 17 7 0 10 -262144 -1 -1
0 1;
#X obj 553 1394 * 127;
#X obj 553 1417 change;
#X obj 682 1439 spigot;
#X obj 726 1440 tgl 15 0 empty empty empty 17 7 0 10 -262144 -1 -1
0 1;
#X obj 682 1392 * 127;
#X obj 682 1415 change;
#X obj 832 1325 /;
#X obj 831 1347 + 1;
#X obj 831 1369 * 0.5;
#X text 876 1368 0 -1;
#X obj 958 1326 /;
#X obj 957 1348 + 1;
#X obj 957 1370 * 0.5;
#X text 1002 1369 0 -1;
#X obj 830 1438 spigot;
#X obj 875 1443 tgl 15 0 empty empty empty 17 7 0 10 -262144 -1 -1
0 1;
#X obj 831 1395 * 127;
#X obj 831 1418 change;
#X obj 960 1440 spigot;
#X obj 1004 1441 tgl 15 0 empty empty empty 17 7 0 10 -262144 -1 -1
0 1;
#X obj 960 1393 * 127;
#X obj 960 1416 change;
#X obj 446 1294 r t_factor;
#X obj 572 1294 r t_factor;
#X obj 693 1297 r t_factor;
#X obj 850 1295 r t_factor;
#X obj 971 1298 r t_factor;
#X obj 1095 1328 /;
#X obj 1094 1350 + 1;
#X obj 1094 1372 * 0.5;
#X text 1139 1371 0 -1;
#X obj 1097 1442 spigot;
#X obj 1141 1443 tgl 15 0 empty empty empty 17 7 0 10 -262144 -1 -1
0 1;
#X obj 1094 1392 * 127;
#X obj 1097 1418 change;
#X obj 1108 1300 r piezo_factor;
#X obj 94 1346 int;
#X floatatom 91 1471 5 0 0 0 - - -;
#X obj 217 1380 int;
#X floatatom 224 1469 5 0 0 0 - - -;
#X obj 314 1396 int;
#X obj 476 1387 int;
#X obj 601 1392 int;
#X obj 733 1390 int;
#X obj 881 1394 int;
#X obj 1011 1392 int;
#X obj 1159 1392 int;
#X obj 14 1460 ctlout 61;
#X obj 140 1460 ctlout 62;
#X obj 269 1464 ctlout 63;
#X obj 426 1460 ctlout 64;
#X obj 552 1461 ctlout 65;
#X obj 681 1465 ctlout 66;
#X obj 830 1462 ctlout 67;
#X obj 959 1466 ctlout 68;
#X obj 16 1268 r six_accelx;
#X obj 139 1265 r six_accely;
#X obj 268 1269 r six_accelz;
#X obj 428 1269 r six_t1;
#X obj 554 1269 r six_t2;
#X obj 680 1270 r six_t3;
#X obj 832 1270 r six_t4;
#X obj 958 1271 r six_t5;
#X obj 1095 1273 r six_piezo;
#X obj 1140 1417 r sixPiezoOn;
#X obj 1008 1420 r sixtOn;
#X obj 879 1422 r sixtOn;
#X obj 730 1419 r sixtOn;
#X obj 600 1421 r sixtOn;
#X obj 475 1418 r sixtOn;
#X obj 317 1418 r sixAccelOn;
#X obj 189 1420 r sixAccelOn;
#X obj 63 1416 r sixAccelOn;
#X obj 64 1175 r fiveAccelOn;
#X obj 57 933 r fourAccelOn;
#X obj 58 669 r threeAccelOn;
#X obj 59 424 r twoAccelOn;
#X obj 62 159 r oneAccelOn;
#X obj 21 1568 /;
#X obj 39 1538 r accel_factor;
#X obj 20 1590 + 1;
#X obj 20 1612 * 0.5;
#X text 65 1611 0 -1;
#X obj 147 1568 /;
#X obj 165 1538 r accel_factor;
#X obj 146 1590 + 1;
#X obj 146 1612 * 0.5;
#X text 191 1611 0 -1;
#X obj 273 1569 /;
#X obj 286 1541 r accel_factor;
#X obj 272 1591 + 1;
#X obj 272 1613 * 0.5;
#X text 317 1612 0 -1;
#X obj 20 1682 spigot;
#X obj 64 1683 tgl 15 0 empty empty empty 17 7 0 10 -262144 -1 -1 0
1;
#X obj 20 1635 * 127;
#X obj 20 1658 change;
#X obj 145 1681 spigot;
#X obj 190 1686 tgl 15 0 empty empty empty 17 7 0 10 -262144 -1 -1
0 1;
#X obj 146 1632 * 127;
#X obj 146 1657 change;
#X obj 275 1683 spigot;
#X obj 319 1684 tgl 15 0 empty empty empty 17 7 0 10 -262144 -1 -1
0 1;
#X obj 274 1632 * 127;
#X obj 275 1659 change;
#X obj 433 1569 /;
#X obj 432 1591 + 1;
#X obj 432 1613 * 0.5;
#X text 477 1612 0 -1;
#X obj 559 1569 /;
#X obj 558 1591 + 1;
#X obj 558 1613 * 0.5;
#X text 603 1612 0 -1;
#X obj 685 1570 /;
#X obj 684 1592 + 1;
#X obj 684 1614 * 0.5;
#X text 729 1613 0 -1;
#X obj 432 1683 spigot;
#X obj 476 1684 tgl 15 0 empty empty empty 17 7 0 10 -262144 -1 -1
0 1;
#X obj 432 1632 * 127;
#X obj 432 1659 change;
#X obj 557 1682 spigot;
#X obj 602 1687 tgl 15 0 empty empty empty 17 7 0 10 -262144 -1 -1
0 1;
#X obj 558 1639 * 127;
#X obj 558 1662 change;
#X obj 687 1684 spigot;
#X obj 731 1685 tgl 15 0 empty empty empty 17 7 0 10 -262144 -1 -1
0 1;
#X obj 687 1637 * 127;
#X obj 687 1660 change;
#X obj 837 1570 /;
#X obj 836 1592 + 1;
#X obj 836 1614 * 0.5;
#X text 881 1613 0 -1;
#X obj 963 1571 /;
#X obj 962 1593 + 1;
#X obj 962 1615 * 0.5;
#X text 1007 1614 0 -1;
#X obj 835 1683 spigot;
#X obj 880 1688 tgl 15 0 empty empty empty 17 7 0 10 -262144 -1 -1
0 1;
#X obj 836 1640 * 127;
#X obj 836 1663 change;
#X obj 965 1685 spigot;
#X obj 1009 1686 tgl 15 0 empty empty empty 17 7 0 10 -262144 -1 -1
0 1;
#X obj 965 1638 * 127;
#X obj 965 1661 change;
#X obj 451 1539 r t_factor;
#X obj 577 1539 r t_factor;
#X obj 698 1542 r t_factor;
#X obj 855 1540 r t_factor;
#X obj 976 1543 r t_factor;
#X obj 1100 1573 /;
#X obj 1099 1595 + 1;
#X obj 1099 1617 * 0.5;
#X text 1144 1616 0 -1;
#X obj 1102 1687 spigot;
#X obj 1146 1688 tgl 15 0 empty empty empty 17 7 0 10 -262144 -1 -1
0 1;
#X obj 1099 1637 * 127;
#X obj 1102 1663 change;
#X obj 1113 1545 r piezo_factor;
#X obj 69 1636 int;
#X floatatom 96 1716 5 0 0 0 - - -;
#X obj 193 1637 int;
#X floatatom 229 1714 5 0 0 0 - - -;
#X obj 320 1642 int;
#X obj 481 1632 int;
#X obj 606 1637 int;
#X obj 738 1635 int;
#X obj 886 1639 int;
#X obj 1016 1637 int;
#X obj 1164 1637 int;
#X obj 25 1821 /;
#X obj 43 1791 r accel_factor;
#X obj 24 1843 + 1;
#X obj 24 1865 * 0.5;
#X text 69 1864 0 -1;
#X obj 151 1821 /;
#X obj 169 1791 r accel_factor;
#X obj 150 1843 + 1;
#X obj 150 1865 * 0.5;
#X text 195 1864 0 -1;
#X obj 277 1822 /;
#X obj 290 1794 r accel_factor;
#X obj 276 1844 + 1;
#X obj 276 1866 * 0.5;
#X text 321 1865 0 -1;
#X obj 24 1935 spigot;
#X obj 68 1936 tgl 15 0 empty empty empty 17 7 0 10 -262144 -1 -1 0
1;
#X obj 24 1888 * 127;
#X obj 24 1911 change;
#X obj 149 1934 spigot;
#X obj 194 1939 tgl 15 0 empty empty empty 17 7 0 10 -262144 -1 -1
0 1;
#X obj 150 1885 * 127;
#X obj 150 1910 change;
#X obj 279 1936 spigot;
#X obj 323 1937 tgl 15 0 empty empty empty 17 7 0 10 -262144 -1 -1
0 1;
#X obj 278 1885 * 127;
#X obj 279 1912 change;
#X obj 437 1822 /;
#X obj 436 1844 + 1;
#X obj 436 1866 * 0.5;
#X text 481 1865 0 -1;
#X obj 563 1822 /;
#X obj 562 1844 + 1;
#X obj 562 1866 * 0.5;
#X text 607 1865 0 -1;
#X obj 689 1823 /;
#X obj 688 1845 + 1;
#X obj 688 1867 * 0.5;
#X text 733 1866 0 -1;
#X obj 436 1936 spigot;
#X obj 480 1937 tgl 15 0 empty empty empty 17 7 0 10 -262144 -1 -1
0 1;
#X obj 436 1885 * 127;
#X obj 436 1912 change;
#X obj 561 1935 spigot;
#X obj 606 1940 tgl 15 0 empty empty empty 17 7 0 10 -262144 -1 -1
0 1;
#X obj 562 1892 * 127;
#X obj 562 1915 change;
#X obj 691 1937 spigot;
#X obj 735 1938 tgl 15 0 empty empty empty 17 7 0 10 -262144 -1 -1
0 1;
#X obj 691 1890 * 127;
#X obj 691 1913 change;
#X obj 841 1823 /;
#X obj 840 1845 + 1;
#X obj 840 1867 * 0.5;
#X text 885 1866 0 -1;
#X obj 967 1824 /;
#X obj 966 1846 + 1;
#X obj 966 1868 * 0.5;
#X text 1011 1867 0 -1;
#X obj 839 1936 spigot;
#X obj 884 1941 tgl 15 0 empty empty empty 17 7 0 10 -262144 -1 -1
0 1;
#X obj 840 1893 * 127;
#X obj 840 1916 change;
#X obj 969 1938 spigot;
#X obj 1013 1939 tgl 15 0 empty empty empty 17 7 0 10 -262144 -1 -1
0 1;
#X obj 969 1891 * 127;
#X obj 969 1914 change;
#X obj 455 1792 r t_factor;
#X obj 581 1792 r t_factor;
#X obj 702 1795 r t_factor;
#X obj 859 1793 r t_factor;
#X obj 980 1796 r t_factor;
#X obj 1104 1826 /;
#X obj 1103 1848 + 1;
#X obj 1103 1870 * 0.5;
#X text 1148 1869 0 -1;
#X obj 1106 1940 spigot;
#X obj 1150 1941 tgl 15 0 empty empty empty 17 7 0 10 -262144 -1 -1
0 1;
#X obj 1103 1890 * 127;
#X obj 1106 1916 change;
#X obj 1117 1798 r piezo_factor;
#X obj 103 1844 int;
#X floatatom 100 1969 5 0 0 0 - - -;
#X obj 226 1878 int;
#X floatatom 233 1967 5 0 0 0 - - -;
#X obj 362 1861 int;
#X obj 485 1885 int;
#X obj 610 1890 int;
#X obj 742 1888 int;
#X obj 890 1892 int;
#X obj 1020 1890 int;
#X obj 1168 1890 int;
#X obj 19 1705 ctlout 71;
#X obj 145 1705 ctlout 72;
#X obj 274 1709 ctlout 73;
#X obj 431 1705 ctlout 74;
#X obj 557 1706 ctlout 75;
#X obj 686 1710 ctlout 76;
#X obj 835 1707 ctlout 77;
#X obj 964 1711 ctlout 78;
#X obj 23 1958 ctlout 81;
#X obj 149 1958 ctlout 82;
#X obj 278 1962 ctlout 83;
#X obj 435 1958 ctlout 84;
#X obj 561 1959 ctlout 85;
#X obj 690 1963 ctlout 86;
#X obj 839 1960 ctlout 87;
#X obj 968 1964 ctlout 88;
#X obj 21 1513 r seven_accelx;
#X obj 144 1510 r seven_accely;
#X obj 273 1514 r seven_accelz;
#X obj 433 1514 r seven_t1;
#X obj 559 1514 r seven_t2;
#X obj 685 1515 r seven_t3;
#X obj 837 1515 r seven_t4;
#X obj 963 1516 r seven_t5;
#X obj 1100 1518 r seven_piezo;
#X obj 68 1661 r sevenAccelOn;
#X obj 194 1665 r sevenAccelOn;
#X obj 322 1663 r sevenAccelOn;
#X obj 480 1663 r seventOn;
#X obj 605 1666 r seventOn;
#X obj 735 1664 r seventOn;
#X obj 884 1667 r seventOn;
#X obj 1013 1665 r seventOn;
#X obj 1144 1662 r sevenPiezoOn;
#X obj 24 1766 r eight_accelx;
#X obj 148 1763 r eight_accely;
#X obj 277 1767 r eight_accelz;
#X obj 437 1767 r eight_t1;
#X obj 563 1767 r eight_t2;
#X obj 689 1768 r eight_t3;
#X obj 841 1768 r eight_t4;
#X obj 967 1769 r eight_t5;
#X obj 1104 1771 r eight_piezo;
#X obj 72 1914 r eightAccelOn;
#X obj 198 1918 r eightAccelOn;
#X obj 326 1916 r eightAccelOn;
#X obj 484 1916 r eighttOn;
#X obj 609 1919 r eighttOn;
#X obj 739 1917 r eighttOn;
#X obj 888 1920 r eighttOn;
#X obj 1017 1918 r eighttOn;
#X obj 1149 1915 r eightPiezoOn;
#X obj 64 86 int;
#X obj 205 79 int;
#X obj 426 88 + 0;
#X obj 468 135 int;
#X obj 552 88 + 0;
#X obj 678 89 + 0;
#X obj 830 89 + 0;
#X obj 956 90 + 0;
#X obj 595 139 int;
#X obj 733 130 int;
#X obj 882 129 int;
#X obj 1003 131 int;
#X obj 325 127 int;
#X obj 315 401 int;
#X obj 471 398 int;
#X obj 599 398 int;
#X obj 743 391 int;
#X obj 881 398 int;
#X obj 1006 396 int;
#X obj 325 639 int;
#X obj 481 643 int;
#X obj 605 642 int;
#X obj 733 639 int;
#X obj 874 642 int;
#X obj 1001 646 int;
#X obj 318 910 int;
#X obj 469 907 int;
#X obj 596 910 int;
#X obj 729 910 int;
#X obj 868 912 int;
#X obj 989 911 int;
#X floatatom 479 70 5 0 0 0 - - -;
#X floatatom 605 79 5 0 0 0 - - -;
#X floatatom 342 974 5 0 0 0 - - -;
#X floatatom 304 857 5 0 0 0 - - -;
#X obj 10 861 + 0;
#X obj 29 809 r accel_factorX;
#X obj 136 883 * 0.5;
#X obj 262 862 + 1;
#X obj 261 884 * 0.5;
#X obj 379 768 vsl 15 128 0 127 0 0 empty empty empty 0 -9 0 10 -262144
-1 -1 0 1;
#X obj 247 751 vsl 15 128 0 127 0 0 empty empty empty 0 -9 0 10 -262144
-1 -1 0 1;
#X obj 111 756 vsl 15 128 0 127 0 0 empty empty empty 0 -9 0 10 -262144
-1 -1 0 1;
#X obj 155 809 r accel_factorY;
#X obj 276 812 r accel_factorZ;
#X obj 136 861 + 1;
#X msg 1343 952 bang;
#X obj 1332 929 pack f 0 4;
#X obj 1300 878 f;
#X obj 1148 910 int;
#X obj 1300 903 +;
#X obj 1357 878 r fourPiezoRange;
#X obj 1250 858 int;
#X obj 1266 879 int;
#X obj 1328 879 int;
#X obj 1247 815 speedlim 100;
#X obj 1343 972 del 150;
#X obj 1245 528 spigot;
#X obj 1289 529 tgl 15 0 empty empty empty 17 7 0 10 -262144 -1 -1
0 1;
#X obj 1251 718 noteout;
#X obj 1247 546 bang;
#X obj 1247 585 random 50;
#X obj 1250 647 +;
#X msg 1343 701 bang;
#X obj 1300 627 f;
#X obj 1300 652 +;
#X obj 1250 607 int;
#X obj 1266 628 int;
#X obj 1328 628 int;
#X obj 1247 564 speedlim 100;
#X obj 1343 721 del 150;
#X obj 1316 527 r threePiezoRan;
#X obj 1277 604 r threePiezoRange;
#X obj 1357 627 r threePiezoRange;
#X obj 1251 678 pack f 100 3;
#X obj 1332 678 pack f 0 3;
#X obj 1247 276 spigot;
#X obj 1291 277 tgl 15 0 empty empty empty 17 7 0 10 -262144 -1 -1
0 1;
#X obj 1253 466 noteout;
#X obj 1249 294 bang;
#X obj 1249 333 random 50;
#X obj 1252 395 +;
#X msg 1345 449 bang;
#X obj 1302 375 f;
#X obj 1302 400 +;
#X obj 1252 355 int;
#X obj 1268 376 int;
#X obj 1330 376 int;
#X obj 1249 312 speedlim 100;
#X obj 1345 469 del 150;
#X obj 1318 275 r twoPiezoRan;
#X obj 1279 352 r twoPiezoRange;
#X obj 1359 375 r twoPiezoRange;
#X obj 1253 426 pack f 100 2;
#X obj 1334 426 pack f 0 2;
#X obj 1266 11 spigot;
#X obj 1310 12 tgl 15 0 empty empty empty 17 7 0 10 -262144 -1 -1 0
1;
#X obj 1272 201 noteout;
#X obj 1268 29 bang;
#X obj 1268 68 random 50;
#X obj 1271 130 +;
#X msg 1364 184 bang;
#X obj 1321 110 f;
#X obj 1321 135 +;
#X obj 1271 90 int;
#X obj 1287 111 int;
#X obj 1349 111 int;
#X obj 1268 47 speedlim 100;
#X obj 1364 204 del 150;
#X obj 1337 10 r onePiezoRan;
#X obj 1298 87 r onePiezoRange;
#X obj 1378 110 r onePiezoRange;
#X obj 1353 161 pack f 0 1;
#X obj 1272 161 pack f 100 1;
#X obj 1254 1023 spigot;
#X obj 1298 1024 tgl 15 0 empty empty empty 17 7 0 10 -262144 -1 -1
0 1;
#X obj 1260 1213 noteout;
#X obj 1256 1041 bang;
#X obj 1256 1080 random 50;
#X obj 1259 1142 +;
#X msg 1352 1196 bang;
#X obj 1309 1122 f;
#X obj 1309 1147 +;
#X obj 1259 1102 int;
#X obj 1275 1123 int;
#X obj 1337 1123 int;
#X obj 1256 1059 speedlim 100;
#X obj 1352 1216 del 150;
#X obj 1325 1022 r fivePiezoRan;
#X obj 1286 1099 r fivePiezoRange;
#X obj 1366 1122 r fivePiezoRange;
#X obj 1341 1173 pack f 0 5;
#X obj 1260 1173 pack f 100 5;
#X obj 1258 1263 spigot;
#X obj 1302 1264 tgl 15 0 empty empty empty 17 7 0 10 -262144 -1 -1
0 1;
#X obj 1264 1453 noteout;
#X obj 1260 1281 bang;
#X obj 1260 1320 random 50;
#X obj 1263 1382 +;
#X msg 1356 1436 bang;
#X obj 1313 1362 f;
#X obj 1313 1387 +;
#X obj 1263 1342 int;
#X obj 1279 1363 int;
#X obj 1341 1363 int;
#X obj 1260 1299 speedlim 100;
#X obj 1356 1456 del 150;
#X obj 1329 1262 r sixPiezoRan;
#X obj 1290 1339 r sixPiezoRange;
#X obj 1370 1362 r sixPiezoRange;
#X obj 1345 1413 pack f 0 6;
#X obj 1264 1413 pack f 100 6;
#X obj 1274 1510 spigot;
#X obj 1318 1511 tgl 15 0 empty empty empty 17 7 0 10 -262144 -1 -1
0 1;
#X obj 1280 1700 noteout;
#X obj 1276 1528 bang;
#X obj 1276 1567 random 50;
#X obj 1279 1629 +;
#X msg 1372 1683 bang;
#X obj 1329 1609 f;
#X obj 1329 1634 +;
#X obj 1279 1589 int;
#X obj 1295 1610 int;
#X obj 1357 1610 int;
#X obj 1276 1546 speedlim 100;
#X obj 1372 1703 del 150;
#X obj 1345 1509 r sevenPiezoRan;
#X obj 1306 1586 r sevenPiezoRange;
#X obj 1386 1609 r sevenPiezoRange;
#X obj 1361 1660 pack f 0 7;
#X obj 1280 1660 pack f 100 7;
#X obj 1290 1765 spigot;
#X obj 1334 1766 tgl 15 0 empty empty empty 17 7 0 10 -262144 -1 -1
0 1;
#X obj 1296 1955 noteout;
#X obj 1292 1783 bang;
#X obj 1292 1822 random 50;
#X obj 1295 1884 +;
#X msg 1388 1938 bang;
#X obj 1345 1864 f;
#X obj 1345 1889 +;
#X obj 1295 1844 int;
#X obj 1311 1865 int;
#X obj 1373 1865 int;
#X obj 1292 1801 speedlim 100;
#X obj 1388 1958 del 150;
#X obj 1361 1764 r eightPiezoRan;
#X obj 1322 1841 r eightPiezoRange;
#X obj 1402 1864 r eightPiezoRange;
#X obj 1296 1915 pack f 100 8;
#X obj 1377 1915 pack f 0 8;
#X obj 1496 43 bang;
#X obj 1496 62 speedlim 100;
#X obj 1497 217 noteout;
#X obj 1496 146 +;
#X msg 1589 200 bang;
#X obj 1546 126 f;
#X obj 1546 151 +;
#X obj 1496 106 int;
#X obj 1512 127 int;
#X obj 1574 127 int;
#X obj 1589 220 del 150;
#X obj 1523 103 r onePiezoRange;
#X obj 1603 126 r onePiezoRange;
#X obj 1578 177 pack f 0 1;
#X obj 1497 177 pack f 100 1;
#X msg 1496 83 60;
#X obj 1495 267 spigot;
#X obj 1539 268 tgl 15 0 empty empty empty 17 7 0 10 -262144 -1 -1
0 1;
#X obj 1495 287 bang;
#X obj 1495 306 speedlim 100;
#X obj 1496 461 noteout;
#X obj 1495 390 +;
#X msg 1588 444 bang;
#X obj 1545 370 f;
#X obj 1545 395 +;
#X obj 1495 350 int;
#X obj 1511 371 int;
#X obj 1573 371 int;
#X obj 1588 464 del 150;
#X obj 1559 266 r twoPiezoDet;
#X obj 1522 347 r twoPiezoRange;
#X obj 1602 370 r twoPiezoRange;
#X obj 1577 421 pack f 0 2;
#X obj 1496 421 pack f 100 2;
#X msg 1495 327 62;
#X obj 1498 523 spigot;
#X obj 1542 524 tgl 15 0 empty empty empty 17 7 0 10 -262144 -1 -1
0 1;
#X obj 1498 543 bang;
#X obj 1498 562 speedlim 100;
#X obj 1499 717 noteout;
#X obj 1498 646 +;
#X msg 1591 700 bang;
#X obj 1548 626 f;
#X obj 1548 651 +;
#X obj 1498 606 int;
#X obj 1514 627 int;
#X obj 1576 627 int;
#X obj 1591 720 del 150;
#X obj 1562 522 r threePiezoDet;
#X msg 1498 583 64;
#X obj 1525 603 r threePiezoRange;
#X obj 1605 626 r threePiezoRange;
#X obj 1499 677 pack f 100 3;
#X obj 1580 677 pack f 0 3;
#X obj 1501 768 spigot;
#X obj 1545 769 tgl 15 0 empty empty empty 17 7 0 10 -262144 -1 -1
0 1;
#X obj 1501 788 bang;
#X obj 1501 807 speedlim 100;
#X obj 1502 962 noteout;
#X obj 1501 891 +;
#X msg 1594 945 bang;
#X obj 1551 871 f;
#X obj 1551 896 +;
#X obj 1501 851 int;
#X obj 1517 872 int;
#X obj 1579 872 int;
#X obj 1594 965 del 150;
#X obj 1565 767 r fourPiezoDet;
#X obj 1528 848 r fourPiezoRange;
#X obj 1608 871 r fourPiezoRange;
#X obj 1502 922 pack f 100 4;
#X obj 1583 922 pack f 0 4;
#X obj 1501 1019 spigot;
#X obj 1545 1020 tgl 15 0 empty empty empty 17 7 0 10 -262144 -1 -1
0 1;
#X obj 1501 1039 bang;
#X obj 1501 1058 speedlim 100;
#X obj 1502 1213 noteout;
#X obj 1501 1142 +;
#X msg 1594 1196 bang;
#X obj 1551 1122 f;
#X obj 1551 1147 +;
#X obj 1501 1102 int;
#X obj 1517 1123 int;
#X obj 1579 1123 int;
#X obj 1594 1216 del 150;
#X obj 1583 1173 pack f 0 5;
#X obj 1502 1173 pack f 100 5;
#X obj 1565 1018 r fivePiezoDet;
#X obj 1528 1099 r fivePiezoRange;
#X obj 1608 1122 r fivePiezoRange;
#X msg 1501 828 65;
#X msg 1501 1079 67;
#X obj 1501 1257 spigot;
#X obj 1545 1258 tgl 15 0 empty empty empty 17 7 0 10 -262144 -1 -1
0 1;
#X obj 1501 1277 bang;
#X obj 1501 1296 speedlim 100;
#X obj 1502 1451 noteout;
#X obj 1501 1380 +;
#X msg 1594 1434 bang;
#X obj 1551 1360 f;
#X obj 1551 1385 +;
#X obj 1501 1340 int;
#X obj 1517 1361 int;
#X obj 1579 1361 int;
#X obj 1594 1454 del 150;
#X obj 1583 1411 pack f 0 6;
#X obj 1502 1411 pack f 100 6;
#X obj 1608 1360 r sixPiezoRange;
#X obj 1565 1256 r sixPiezoDet;
#X msg 1501 1316 69;
#X obj 1528 1337 r sixPiezoRange;
#X obj 1511 1508 spigot;
#X obj 1555 1509 tgl 15 0 empty empty empty 17 7 0 10 -262144 -1 -1
0 1;
#X obj 1511 1528 bang;
#X obj 1511 1547 speedlim 100;
#X obj 1512 1702 noteout;
#X obj 1511 1631 +;
#X msg 1604 1685 bang;
#X obj 1561 1611 f;
#X obj 1561 1636 +;
#X obj 1511 1591 int;
#X obj 1527 1612 int;
#X obj 1589 1612 int;
#X obj 1604 1705 del 150;
#X obj 1575 1507 r sevenPiezoDet;
#X obj 1618 1611 r sevenPiezoRange;
#X obj 1593 1662 pack f 0 7;
#X obj 1512 1662 pack f 100 7;
#X msg 1511 1567 71;
#X obj 1538 1588 r sevenPiezoRange;
#X obj 1516 1752 spigot;
#X obj 1560 1753 tgl 15 0 empty empty empty 17 7 0 10 -262144 -1 -1
0 1;
#X obj 1516 1772 bang;
#X obj 1516 1791 speedlim 100;
#X obj 1517 1946 noteout;
#X obj 1516 1875 +;
#X msg 1609 1929 bang;
#X obj 1566 1855 f;
#X obj 1566 1880 +;
#X obj 1516 1835 int;
#X obj 1532 1856 int;
#X obj 1594 1856 int;
#X obj 1609 1949 del 150;
#X obj 1580 1751 r eightPiezoDet;
#X obj 1543 1832 r eightPiezoRange;
#X obj 1623 1855 r eightPiezoRange;
#X obj 1598 1906 pack f 0 8;
#X obj 1517 1906 pack f 100 8;
#X msg 1516 1811 72;
#X connect 0 0 1 0;
#X connect 1 0 3 0;
#X connect 2 0 1 1;
#X connect 3 0 4 0;
#X connect 4 0 20 0;
#X connect 6 0 8 0;
#X connect 7 0 6 1;
#X connect 8 0 9 0;
#X connect 9 0 24 0;
#X connect 11 0 6 0;
#X connect 12 0 14 0;
#X connect 13 0 12 1;
#X connect 14 0 15 0;
#X connect 15 0 29 0;
#X connect 17 0 12 0;
#X connect 18 0 32 0;
#X connect 19 0 18 1;
#X connect 20 0 910 0;
#X connect 21 0 18 0;
#X connect 22 0 33 0;
#X connect 23 0 22 1;
#X connect 24 0 911 0;
#X connect 25 0 22 0;
#X connect 26 0 23 0;
#X connect 27 0 34 0;
#X connect 28 0 27 1;
#X connect 29 0 922 0;
#X connect 30 0 27 0;
#X connect 31 0 28 0;
#X connect 35 0 912 0;
#X connect 36 0 46 0;
#X connect 38 0 914 0;
#X connect 39 0 50 0;
#X connect 41 0 915 0;
#X connect 42 0 54 0;
#X connect 44 0 85 0;
#X connect 45 0 44 1;
#X connect 46 0 913 0;
#X connect 47 0 44 0;
#X connect 48 0 86 0;
#X connect 49 0 48 1;
#X connect 50 0 918 0;
#X connect 51 0 48 0;
#X connect 52 0 87 0;
#X connect 53 0 52 1;
#X connect 54 0 919 0;
#X connect 55 0 52 0;
#X connect 56 0 916 0;
#X connect 57 0 64 0;
#X connect 59 0 917 0;
#X connect 60 0 68 0;
#X connect 62 0 88 0;
#X connect 63 0 62 1;
#X connect 64 0 920 0;
#X connect 65 0 62 0;
#X connect 66 0 89 0;
#X connect 67 0 66 1;
#X connect 68 0 921 0;
#X connect 69 0 66 0;
#X connect 70 0 35 0;
#X connect 71 0 38 0;
#X connect 71 0 942 0;
#X connect 72 0 41 0;
#X connect 73 0 56 0;
#X connect 74 0 59 0;
#X connect 75 0 35 1;
#X connect 76 0 38 1;
#X connect 77 0 41 1;
#X connect 78 0 56 1;
#X connect 79 0 59 1;
#X connect 80 0 45 0;
#X connect 81 0 49 0;
#X connect 82 0 53 0;
#X connect 83 0 63 0;
#X connect 84 0 67 0;
#X connect 90 0 91 0;
#X connect 91 0 92 0;
#X connect 92 0 96 0;
#X connect 94 0 101 0;
#X connect 94 0 1005 0;
#X connect 95 0 94 1;
#X connect 96 0 97 0;
#X connect 97 0 94 0;
#X connect 98 0 90 0;
#X connect 99 0 90 1;
#X connect 100 0 95 0;
#X connect 101 0 1100 0;
#X connect 102 0 101 1;
#X connect 103 0 102 0;
#X connect 104 0 106 0;
#X connect 105 0 104 1;
#X connect 106 0 107 0;
#X connect 107 0 121 0;
#X connect 109 0 111 0;
#X connect 110 0 109 1;
#X connect 111 0 112 0;
#X connect 112 0 125 0;
#X connect 114 0 116 0;
#X connect 115 0 114 1;
#X connect 116 0 117 0;
#X connect 117 0 129 0;
#X connect 119 0 190 0;
#X connect 120 0 119 1;
#X connect 121 0 424 0;
#X connect 122 0 119 0;
#X connect 123 0 191 0;
#X connect 124 0 123 1;
#X connect 125 0 425 0;
#X connect 126 0 123 0;
#X connect 126 0 423 0;
#X connect 127 0 192 0;
#X connect 128 0 127 1;
#X connect 129 0 923 0;
#X connect 130 0 127 0;
#X connect 131 0 132 0;
#X connect 132 0 133 0;
#X connect 133 0 145 0;
#X connect 135 0 136 0;
#X connect 136 0 137 0;
#X connect 137 0 149 0;
#X connect 139 0 140 0;
#X connect 140 0 141 0;
#X connect 141 0 153 0;
#X connect 143 0 193 0;
#X connect 144 0 143 1;
#X connect 145 0 924 0;
#X connect 146 0 143 0;
#X connect 147 0 194 0;
#X connect 148 0 147 1;
#X connect 149 0 925 0;
#X connect 150 0 147 0;
#X connect 151 0 195 0;
#X connect 152 0 151 1;
#X connect 153 0 926 0;
#X connect 154 0 151 0;
#X connect 155 0 156 0;
#X connect 156 0 157 0;
#X connect 157 0 165 0;
#X connect 159 0 160 0;
#X connect 160 0 161 0;
#X connect 161 0 169 0;
#X connect 163 0 196 0;
#X connect 164 0 163 1;
#X connect 165 0 927 0;
#X connect 166 0 163 0;
#X connect 167 0 197 0;
#X connect 168 0 167 1;
#X connect 169 0 928 0;
#X connect 170 0 167 0;
#X connect 171 0 131 1;
#X connect 172 0 135 1;
#X connect 173 0 139 1;
#X connect 174 0 155 1;
#X connect 175 0 159 1;
#X connect 176 0 177 0;
#X connect 177 0 178 0;
#X connect 178 0 182 0;
#X connect 180 0 986 0;
#X connect 180 0 1116 0;
#X connect 181 0 180 1;
#X connect 182 0 183 0;
#X connect 183 0 180 0;
#X connect 184 0 176 1;
#X connect 185 0 104 0;
#X connect 186 0 109 0;
#X connect 187 0 124 0;
#X connect 188 0 128 0;
#X connect 189 0 114 0;
#X connect 198 0 131 0;
#X connect 199 0 144 0;
#X connect 200 0 148 0;
#X connect 201 0 135 0;
#X connect 202 0 139 0;
#X connect 203 0 152 0;
#X connect 204 0 164 0;
#X connect 205 0 155 0;
#X connect 206 0 159 0;
#X connect 207 0 168 0;
#X connect 208 0 181 0;
#X connect 209 0 176 0;
#X connect 210 0 212 0;
#X connect 211 0 210 1;
#X connect 212 0 213 0;
#X connect 213 0 227 0;
#X connect 215 0 217 0;
#X connect 216 0 215 1;
#X connect 217 0 218 0;
#X connect 218 0 231 0;
#X connect 220 0 222 0;
#X connect 221 0 220 1;
#X connect 222 0 223 0;
#X connect 223 0 235 0;
#X connect 225 0 291 0;
#X connect 226 0 225 1;
#X connect 227 0 426 0;
#X connect 228 0 225 0;
#X connect 229 0 292 0;
#X connect 230 0 229 1;
#X connect 231 0 428 0;
#X connect 232 0 229 0;
#X connect 233 0 293 0;
#X connect 234 0 233 1;
#X connect 235 0 929 0;
#X connect 236 0 233 0;
#X connect 237 0 238 0;
#X connect 238 0 239 0;
#X connect 239 0 251 0;
#X connect 241 0 242 0;
#X connect 242 0 243 0;
#X connect 243 0 255 0;
#X connect 245 0 246 0;
#X connect 246 0 247 0;
#X connect 247 0 259 0;
#X connect 249 0 294 0;
#X connect 250 0 249 1;
#X connect 251 0 930 0;
#X connect 252 0 249 0;
#X connect 253 0 295 0;
#X connect 254 0 253 1;
#X connect 255 0 931 0;
#X connect 256 0 253 0;
#X connect 257 0 296 0;
#X connect 258 0 257 1;
#X connect 259 0 932 0;
#X connect 260 0 257 0;
#X connect 261 0 262 0;
#X connect 262 0 263 0;
#X connect 263 0 271 0;
#X connect 265 0 266 0;
#X connect 266 0 267 0;
#X connect 267 0 275 0;
#X connect 269 0 297 0;
#X connect 270 0 269 1;
#X connect 271 0 933 0;
#X connect 272 0 269 0;
#X connect 273 0 298 0;
#X connect 274 0 273 1;
#X connect 275 0 934 0;
#X connect 276 0 273 0;
#X connect 277 0 237 1;
#X connect 278 0 241 1;
#X connect 279 0 245 1;
#X connect 280 0 261 1;
#X connect 281 0 265 1;
#X connect 282 0 283 0;
#X connect 283 0 284 0;
#X connect 284 0 288 0;
#X connect 286 0 967 0;
#X connect 286 0 1135 0;
#X connect 287 0 286 1;
#X connect 288 0 289 0;
#X connect 289 0 286 0;
#X connect 290 0 282 1;
#X connect 299 0 210 0;
#X connect 300 0 215 0;
#X connect 301 0 220 0;
#X connect 302 0 237 0;
#X connect 303 0 241 0;
#X connect 304 0 245 0;
#X connect 305 0 261 0;
#X connect 306 0 265 0;
#X connect 307 0 282 0;
#X connect 308 0 287 0;
#X connect 309 0 274 0;
#X connect 310 0 270 0;
#X connect 311 0 258 0;
#X connect 312 0 254 0;
#X connect 313 0 250 0;
#X connect 314 0 234 0;
#X connect 315 0 230 0;
#X connect 316 0 945 0;
#X connect 317 0 325 0;
#X connect 319 0 955 0;
#X connect 321 0 944 0;
#X connect 321 0 948 0;
#X connect 323 0 415 0;
#X connect 323 0 431 0;
#X connect 323 0 952 0;
#X connect 324 0 323 1;
#X connect 325 0 429 0;
#X connect 326 0 323 0;
#X connect 327 0 416 0;
#X connect 327 0 951 0;
#X connect 328 0 327 1;
#X connect 329 0 432 0;
#X connect 330 0 327 0;
#X connect 330 0 433 0;
#X connect 331 0 417 0;
#X connect 331 0 943 0;
#X connect 331 0 950 0;
#X connect 332 0 331 1;
#X connect 333 0 935 0;
#X connect 334 0 331 0;
#X connect 335 0 336 0;
#X connect 336 0 337 0;
#X connect 337 0 349 0;
#X connect 339 0 340 0;
#X connect 340 0 341 0;
#X connect 341 0 353 0;
#X connect 343 0 344 0;
#X connect 344 0 345 0;
#X connect 345 0 357 0;
#X connect 347 0 418 0;
#X connect 348 0 347 1;
#X connect 349 0 936 0;
#X connect 350 0 347 0;
#X connect 351 0 419 0;
#X connect 352 0 351 1;
#X connect 353 0 937 0;
#X connect 354 0 351 0;
#X connect 355 0 420 0;
#X connect 356 0 355 1;
#X connect 357 0 938 0;
#X connect 358 0 355 0;
#X connect 359 0 360 0;
#X connect 360 0 361 0;
#X connect 361 0 369 0;
#X connect 363 0 364 0;
#X connect 364 0 365 0;
#X connect 365 0 373 0;
#X connect 367 0 421 0;
#X connect 368 0 367 1;
#X connect 369 0 939 0;
#X connect 370 0 367 0;
#X connect 371 0 422 0;
#X connect 372 0 371 1;
#X connect 373 0 940 0;
#X connect 374 0 371 0;
#X connect 375 0 335 1;
#X connect 376 0 339 1;
#X connect 377 0 343 1;
#X connect 378 0 359 1;
#X connect 379 0 363 1;
#X connect 380 0 381 0;
#X connect 381 0 382 0;
#X connect 382 0 386 0;
#X connect 384 0 389 0;
#X connect 384 0 1154 0;
#X connect 385 0 384 1;
#X connect 386 0 959 0;
#X connect 387 0 384 0;
#X connect 388 0 380 1;
#X connect 389 0 392 0;
#X connect 390 0 389 1;
#X connect 392 0 965 0;
#X connect 393 0 962 0;
#X connect 394 0 414 0;
#X connect 395 0 316 0;
#X connect 396 0 319 0;
#X connect 397 0 321 0;
#X connect 398 0 335 0;
#X connect 399 0 339 0;
#X connect 400 0 343 0;
#X connect 401 0 359 0;
#X connect 402 0 363 0;
#X connect 403 0 380 0;
#X connect 404 0 390 0;
#X connect 405 0 963 0;
#X connect 406 0 328 0;
#X connect 407 0 332 0;
#X connect 408 0 348 0;
#X connect 409 0 352 0;
#X connect 410 0 356 0;
#X connect 411 0 368 0;
#X connect 412 0 372 0;
#X connect 413 0 385 0;
#X connect 414 0 391 0;
#X connect 414 0 956 0;
#X connect 424 0 122 0;
#X connect 425 0 126 0;
#X connect 426 0 228 0;
#X connect 426 0 427 0;
#X connect 428 0 232 0;
#X connect 429 0 326 0;
#X connect 429 0 430 0;
#X connect 432 0 330 0;
#X connect 434 0 436 0;
#X connect 435 0 434 1;
#X connect 436 0 437 0;
#X connect 437 0 451 0;
#X connect 439 0 441 0;
#X connect 440 0 439 1;
#X connect 441 0 442 0;
#X connect 442 0 455 0;
#X connect 444 0 446 0;
#X connect 445 0 444 1;
#X connect 446 0 447 0;
#X connect 447 0 459 0;
#X connect 449 0 516 0;
#X connect 449 0 536 0;
#X connect 450 0 449 1;
#X connect 451 0 515 0;
#X connect 452 0 449 0;
#X connect 453 0 537 0;
#X connect 454 0 453 1;
#X connect 455 0 517 0;
#X connect 456 0 453 0;
#X connect 456 0 518 0;
#X connect 457 0 538 0;
#X connect 458 0 457 1;
#X connect 459 0 544 0;
#X connect 460 0 457 0;
#X connect 461 0 462 0;
#X connect 462 0 463 0;
#X connect 463 0 475 0;
#X connect 465 0 466 0;
#X connect 466 0 467 0;
#X connect 467 0 479 0;
#X connect 469 0 470 0;
#X connect 470 0 471 0;
#X connect 471 0 483 0;
#X connect 473 0 539 0;
#X connect 474 0 473 1;
#X connect 475 0 545 0;
#X connect 476 0 473 0;
#X connect 477 0 540 0;
#X connect 478 0 477 1;
#X connect 479 0 546 1;
#X connect 480 0 477 0;
#X connect 481 0 541 0;
#X connect 482 0 481 1;
#X connect 483 0 547 0;
#X connect 484 0 481 0;
#X connect 485 0 486 0;
#X connect 486 0 487 0;
#X connect 487 0 495 0;
#X connect 489 0 490 0;
#X connect 490 0 491 0;
#X connect 491 0 499 0;
#X connect 493 0 542 0;
#X connect 494 0 493 1;
#X connect 495 0 548 0;
#X connect 496 0 493 0;
#X connect 497 0 543 0;
#X connect 498 0 497 1;
#X connect 499 0 549 0;
#X connect 500 0 497 0;
#X connect 501 0 461 1;
#X connect 502 0 465 1;
#X connect 503 0 469 1;
#X connect 504 0 485 1;
#X connect 505 0 489 1;
#X connect 506 0 507 0;
#X connect 507 0 508 0;
#X connect 508 0 512 0;
#X connect 510 0 1024 0;
#X connect 510 0 1172 0;
#X connect 511 0 510 1;
#X connect 512 0 550 0;
#X connect 513 0 510 0;
#X connect 514 0 506 1;
#X connect 515 0 452 0;
#X connect 517 0 456 0;
#X connect 519 0 434 0;
#X connect 520 0 439 0;
#X connect 521 0 444 0;
#X connect 522 0 461 0;
#X connect 523 0 465 0;
#X connect 524 0 469 0;
#X connect 525 0 485 0;
#X connect 526 0 489 0;
#X connect 527 0 506 0;
#X connect 528 0 454 0;
#X connect 529 0 458 0;
#X connect 530 0 474 0;
#X connect 531 0 478 0;
#X connect 532 0 482 0;
#X connect 533 0 494 0;
#X connect 534 0 498 0;
#X connect 535 0 511 0;
#X connect 544 0 460 0;
#X connect 545 0 476 0;
#X connect 546 0 480 0;
#X connect 547 0 484 0;
#X connect 548 0 496 0;
#X connect 549 0 500 0;
#X connect 550 0 513 0;
#X connect 551 0 553 0;
#X connect 552 0 551 1;
#X connect 553 0 554 0;
#X connect 554 0 568 0;
#X connect 556 0 558 0;
#X connect 557 0 556 1;
#X connect 558 0 559 0;
#X connect 559 0 572 0;
#X connect 561 0 563 0;
#X connect 562 0 561 1;
#X connect 563 0 564 0;
#X connect 564 0 576 0;
#X connect 566 0 633 0;
#X connect 566 0 643 0;
#X connect 567 0 566 1;
#X connect 568 0 632 0;
#X connect 569 0 566 0;
#X connect 570 0 644 0;
#X connect 571 0 570 1;
#X connect 572 0 634 0;
#X connect 573 0 570 0;
#X connect 573 0 635 0;
#X connect 574 0 645 0;
#X connect 575 0 574 1;
#X connect 576 0 636 0;
#X connect 577 0 574 0;
#X connect 578 0 579 0;
#X connect 579 0 580 0;
#X connect 580 0 592 0;
#X connect 582 0 583 0;
#X connect 583 0 584 0;
#X connect 584 0 596 0;
#X connect 586 0 587 0;
#X connect 587 0 588 0;
#X connect 588 0 600 0;
#X connect 590 0 646 0;
#X connect 591 0 590 1;
#X connect 592 0 637 0;
#X connect 593 0 590 0;
#X connect 594 0 647 0;
#X connect 595 0 594 1;
#X connect 596 0 638 1;
#X connect 597 0 594 0;
#X connect 598 0 648 0;
#X connect 599 0 598 1;
#X connect 600 0 639 0;
#X connect 601 0 598 0;
#X connect 602 0 603 0;
#X connect 603 0 604 0;
#X connect 604 0 612 0;
#X connect 606 0 607 0;
#X connect 607 0 608 0;
#X connect 608 0 616 0;
#X connect 610 0 649 0;
#X connect 611 0 610 1;
#X connect 612 0 640 0;
#X connect 613 0 610 0;
#X connect 614 0 650 0;
#X connect 615 0 614 1;
#X connect 616 0 641 0;
#X connect 617 0 614 0;
#X connect 618 0 578 1;
#X connect 619 0 582 1;
#X connect 620 0 586 1;
#X connect 621 0 602 1;
#X connect 622 0 606 1;
#X connect 623 0 624 0;
#X connect 624 0 625 0;
#X connect 625 0 629 0;
#X connect 627 0 1043 0;
#X connect 627 0 1192 0;
#X connect 628 0 627 1;
#X connect 629 0 642 0;
#X connect 630 0 627 0;
#X connect 631 0 623 1;
#X connect 632 0 569 0;
#X connect 634 0 573 0;
#X connect 636 0 577 0;
#X connect 637 0 593 0;
#X connect 638 0 597 0;
#X connect 639 0 601 0;
#X connect 640 0 613 0;
#X connect 641 0 617 0;
#X connect 642 0 630 0;
#X connect 651 0 551 0;
#X connect 652 0 556 0;
#X connect 653 0 561 0;
#X connect 654 0 578 0;
#X connect 655 0 582 0;
#X connect 656 0 586 0;
#X connect 657 0 602 0;
#X connect 658 0 606 0;
#X connect 659 0 623 0;
#X connect 660 0 628 0;
#X connect 661 0 615 0;
#X connect 662 0 611 0;
#X connect 663 0 599 0;
#X connect 664 0 595 0;
#X connect 665 0 591 0;
#X connect 666 0 575 0;
#X connect 667 0 571 0;
#X connect 668 0 567 0;
#X connect 669 0 450 0;
#X connect 670 0 324 0;
#X connect 671 0 226 0;
#X connect 672 0 120 0;
#X connect 673 0 19 0;
#X connect 674 0 676 0;
#X connect 675 0 674 1;
#X connect 676 0 677 0;
#X connect 677 0 691 0;
#X connect 679 0 681 0;
#X connect 680 0 679 1;
#X connect 681 0 682 0;
#X connect 682 0 695 0;
#X connect 684 0 686 0;
#X connect 685 0 684 1;
#X connect 686 0 687 0;
#X connect 687 0 699 0;
#X connect 689 0 756 0;
#X connect 689 0 858 0;
#X connect 690 0 689 1;
#X connect 691 0 755 0;
#X connect 692 0 689 0;
#X connect 693 0 859 0;
#X connect 694 0 693 1;
#X connect 695 0 757 0;
#X connect 696 0 693 0;
#X connect 696 0 758 0;
#X connect 697 0 860 0;
#X connect 698 0 697 1;
#X connect 699 0 759 0;
#X connect 700 0 697 0;
#X connect 701 0 702 0;
#X connect 702 0 703 0;
#X connect 703 0 715 0;
#X connect 705 0 706 0;
#X connect 706 0 707 0;
#X connect 707 0 719 0;
#X connect 709 0 710 0;
#X connect 710 0 711 0;
#X connect 711 0 723 0;
#X connect 713 0 861 0;
#X connect 714 0 713 1;
#X connect 715 0 760 0;
#X connect 716 0 713 0;
#X connect 717 0 862 0;
#X connect 718 0 717 1;
#X connect 719 0 761 1;
#X connect 720 0 717 0;
#X connect 721 0 863 0;
#X connect 722 0 721 1;
#X connect 723 0 762 0;
#X connect 724 0 721 0;
#X connect 725 0 726 0;
#X connect 726 0 727 0;
#X connect 727 0 735 0;
#X connect 729 0 730 0;
#X connect 730 0 731 0;
#X connect 731 0 739 0;
#X connect 733 0 864 0;
#X connect 734 0 733 1;
#X connect 735 0 763 0;
#X connect 736 0 733 0;
#X connect 737 0 865 0;
#X connect 738 0 737 1;
#X connect 739 0 764 0;
#X connect 740 0 737 0;
#X connect 741 0 701 1;
#X connect 742 0 705 1;
#X connect 743 0 709 1;
#X connect 744 0 725 1;
#X connect 745 0 729 1;
#X connect 746 0 747 0;
#X connect 747 0 748 0;
#X connect 748 0 752 0;
#X connect 750 0 1062 0;
#X connect 750 0 1211 0;
#X connect 751 0 750 1;
#X connect 752 0 765 0;
#X connect 753 0 750 0;
#X connect 754 0 746 1;
#X connect 755 0 692 0;
#X connect 757 0 696 0;
#X connect 759 0 700 0;
#X connect 760 0 716 0;
#X connect 761 0 720 0;
#X connect 762 0 724 0;
#X connect 763 0 736 0;
#X connect 764 0 740 0;
#X connect 765 0 753 0;
#X connect 766 0 768 0;
#X connect 767 0 766 1;
#X connect 768 0 769 0;
#X connect 769 0 783 0;
#X connect 771 0 773 0;
#X connect 772 0 771 1;
#X connect 773 0 774 0;
#X connect 774 0 787 0;
#X connect 776 0 778 0;
#X connect 777 0 776 1;
#X connect 778 0 779 0;
#X connect 779 0 791 0;
#X connect 781 0 848 0;
#X connect 781 0 866 0;
#X connect 782 0 781 1;
#X connect 783 0 847 0;
#X connect 784 0 781 0;
#X connect 785 0 867 0;
#X connect 786 0 785 1;
#X connect 787 0 849 0;
#X connect 788 0 785 0;
#X connect 788 0 850 0;
#X connect 789 0 868 0;
#X connect 790 0 789 1;
#X connect 791 0 851 0;
#X connect 792 0 789 0;
#X connect 793 0 794 0;
#X connect 794 0 795 0;
#X connect 795 0 807 0;
#X connect 797 0 798 0;
#X connect 798 0 799 0;
#X connect 799 0 811 0;
#X connect 801 0 802 0;
#X connect 802 0 803 0;
#X connect 803 0 815 0;
#X connect 805 0 869 0;
#X connect 806 0 805 1;
#X connect 807 0 852 0;
#X connect 808 0 805 0;
#X connect 809 0 870 0;
#X connect 810 0 809 1;
#X connect 811 0 853 1;
#X connect 812 0 809 0;
#X connect 813 0 871 0;
#X connect 814 0 813 1;
#X connect 815 0 854 0;
#X connect 816 0 813 0;
#X connect 817 0 818 0;
#X connect 818 0 819 0;
#X connect 819 0 827 0;
#X connect 821 0 822 0;
#X connect 822 0 823 0;
#X connect 823 0 831 0;
#X connect 825 0 872 0;
#X connect 826 0 825 1;
#X connect 827 0 855 0;
#X connect 828 0 825 0;
#X connect 829 0 873 0;
#X connect 830 0 829 1;
#X connect 831 0 856 0;
#X connect 832 0 829 0;
#X connect 833 0 793 1;
#X connect 834 0 797 1;
#X connect 835 0 801 1;
#X connect 836 0 817 1;
#X connect 837 0 821 1;
#X connect 838 0 839 0;
#X connect 839 0 840 0;
#X connect 840 0 844 0;
#X connect 842 0 1081 0;
#X connect 842 0 1230 0;
#X connect 843 0 842 1;
#X connect 844 0 857 0;
#X connect 845 0 842 0;
#X connect 846 0 838 1;
#X connect 847 0 784 0;
#X connect 849 0 788 0;
#X connect 851 0 792 0;
#X connect 852 0 808 0;
#X connect 853 0 812 0;
#X connect 854 0 816 0;
#X connect 855 0 828 0;
#X connect 856 0 832 0;
#X connect 857 0 845 0;
#X connect 874 0 674 0;
#X connect 875 0 679 0;
#X connect 876 0 684 0;
#X connect 877 0 701 0;
#X connect 878 0 705 0;
#X connect 879 0 709 0;
#X connect 880 0 725 0;
#X connect 881 0 729 0;
#X connect 882 0 746 0;
#X connect 883 0 690 0;
#X connect 884 0 694 0;
#X connect 885 0 698 0;
#X connect 886 0 714 0;
#X connect 887 0 718 0;
#X connect 888 0 722 0;
#X connect 889 0 734 0;
#X connect 890 0 738 0;
#X connect 891 0 751 0;
#X connect 892 0 766 0;
#X connect 893 0 771 0;
#X connect 894 0 776 0;
#X connect 895 0 793 0;
#X connect 896 0 797 0;
#X connect 897 0 801 0;
#X connect 898 0 817 0;
#X connect 899 0 821 0;
#X connect 900 0 838 0;
#X connect 901 0 782 0;
#X connect 902 0 786 0;
#X connect 903 0 790 0;
#X connect 904 0 806 0;
#X connect 905 0 810 0;
#X connect 906 0 814 0;
#X connect 907 0 826 0;
#X connect 908 0 830 0;
#X connect 909 0 843 0;
#X connect 910 0 21 0;
#X connect 911 0 25 0;
#X connect 912 0 36 0;
#X connect 913 0 47 0;
#X connect 913 0 941 0;
#X connect 914 0 39 0;
#X connect 915 0 42 0;
#X connect 916 0 57 0;
#X connect 917 0 60 0;
#X connect 918 0 51 0;
#X connect 919 0 55 0;
#X connect 920 0 65 0;
#X connect 921 0 69 0;
#X connect 922 0 30 0;
#X connect 923 0 130 0;
#X connect 924 0 146 0;
#X connect 925 0 150 0;
#X connect 926 0 154 0;
#X connect 927 0 166 0;
#X connect 928 0 170 0;
#X connect 929 0 236 0;
#X connect 930 0 252 0;
#X connect 931 0 256 0;
#X connect 932 0 260 0;
#X connect 933 0 272 0;
#X connect 934 0 276 0;
#X connect 935 0 334 0;
#X connect 936 0 350 0;
#X connect 937 0 354 0;
#X connect 938 0 358 0;
#X connect 939 0 370 0;
#X connect 940 0 374 0;
#X connect 945 0 317 0;
#X connect 946 0 316 1;
#X connect 947 0 329 0;
#X connect 948 0 949 0;
#X connect 949 0 333 0;
#X connect 953 0 319 1;
#X connect 954 0 321 1;
#X connect 955 0 947 0;
#X connect 956 0 966 0;
#X connect 957 0 391 0;
#X connect 958 0 960 0;
#X connect 959 0 387 0;
#X connect 960 0 957 0;
#X connect 961 0 964 0;
#X connect 962 0 394 0;
#X connect 962 0 958 1;
#X connect 963 0 394 1;
#X connect 964 0 960 1;
#X connect 965 0 393 0;
#X connect 966 0 958 0;
#X connect 967 0 970 0;
#X connect 968 0 967 1;
#X connect 970 0 979 0;
#X connect 971 0 976 0;
#X connect 972 0 984 0;
#X connect 973 0 980 0;
#X connect 974 0 975 0;
#X connect 975 0 985 0;
#X connect 976 0 972 0;
#X connect 976 0 974 1;
#X connect 977 0 972 1;
#X connect 978 0 975 1;
#X connect 979 0 971 0;
#X connect 980 0 974 0;
#X connect 981 0 968 0;
#X connect 982 0 977 0;
#X connect 983 0 978 0;
#X connect 984 0 969 0;
#X connect 984 0 973 0;
#X connect 985 0 969 0;
#X connect 986 0 989 0;
#X connect 987 0 986 1;
#X connect 989 0 998 0;
#X connect 990 0 995 0;
#X connect 991 0 1003 0;
#X connect 992 0 999 0;
#X connect 993 0 994 0;
#X connect 994 0 1004 0;
#X connect 995 0 991 0;
#X connect 995 0 993 1;
#X connect 996 0 991 1;
#X connect 997 0 994 1;
#X connect 998 0 990 0;
#X connect 999 0 993 0;
#X connect 1000 0 987 0;
#X connect 1001 0 996 0;
#X connect 1002 0 997 0;
#X connect 1003 0 988 0;
#X connect 1003 0 992 0;
#X connect 1004 0 988 0;
#X connect 1005 0 1008 0;
#X connect 1006 0 1005 1;
#X connect 1008 0 1017 0;
#X connect 1009 0 1014 0;
#X connect 1010 0 1023 0;
#X connect 1011 0 1018 0;
#X connect 1012 0 1013 0;
#X connect 1013 0 1022 0;
#X connect 1014 0 1010 0;
#X connect 1014 0 1012 1;
#X connect 1015 0 1010 1;
#X connect 1016 0 1013 1;
#X connect 1017 0 1009 0;
#X connect 1018 0 1012 0;
#X connect 1019 0 1006 0;
#X connect 1020 0 1015 0;
#X connect 1021 0 1016 0;
#X connect 1022 0 1007 0;
#X connect 1023 0 1007 0;
#X connect 1023 0 1011 0;
#X connect 1024 0 1027 0;
#X connect 1025 0 1024 1;
#X connect 1027 0 1036 0;
#X connect 1028 0 1033 0;
#X connect 1029 0 1042 0;
#X connect 1030 0 1037 0;
#X connect 1031 0 1032 0;
#X connect 1032 0 1041 0;
#X connect 1033 0 1029 0;
#X connect 1033 0 1031 1;
#X connect 1034 0 1029 1;
#X connect 1035 0 1032 1;
#X connect 1036 0 1028 0;
#X connect 1037 0 1031 0;
#X connect 1038 0 1025 0;
#X connect 1039 0 1034 0;
#X connect 1040 0 1035 0;
#X connect 1041 0 1026 0;
#X connect 1042 0 1026 0;
#X connect 1042 0 1030 0;
#X connect 1043 0 1046 0;
#X connect 1044 0 1043 1;
#X connect 1046 0 1055 0;
#X connect 1047 0 1052 0;
#X connect 1048 0 1061 0;
#X connect 1049 0 1056 0;
#X connect 1050 0 1051 0;
#X connect 1051 0 1060 0;
#X connect 1052 0 1048 0;
#X connect 1052 0 1050 1;
#X connect 1053 0 1048 1;
#X connect 1054 0 1051 1;
#X connect 1055 0 1047 0;
#X connect 1056 0 1050 0;
#X connect 1057 0 1044 0;
#X connect 1058 0 1053 0;
#X connect 1059 0 1054 0;
#X connect 1060 0 1045 0;
#X connect 1061 0 1045 0;
#X connect 1061 0 1049 0;
#X connect 1062 0 1065 0;
#X connect 1063 0 1062 1;
#X connect 1065 0 1074 0;
#X connect 1066 0 1071 0;
#X connect 1067 0 1080 0;
#X connect 1068 0 1075 0;
#X connect 1069 0 1070 0;
#X connect 1070 0 1079 0;
#X connect 1071 0 1067 0;
#X connect 1071 0 1069 1;
#X connect 1072 0 1067 1;
#X connect 1073 0 1070 1;
#X connect 1074 0 1066 0;
#X connect 1075 0 1069 0;
#X connect 1076 0 1063 0;
#X connect 1077 0 1072 0;
#X connect 1078 0 1073 0;
#X connect 1079 0 1064 0;
#X connect 1080 0 1064 0;
#X connect 1080 0 1068 0;
#X connect 1081 0 1084 0;
#X connect 1082 0 1081 1;
#X connect 1084 0 1093 0;
#X connect 1085 0 1090 0;
#X connect 1086 0 1098 0;
#X connect 1087 0 1094 0;
#X connect 1088 0 1089 0;
#X connect 1089 0 1099 0;
#X connect 1090 0 1086 0;
#X connect 1090 0 1088 1;
#X connect 1091 0 1086 1;
#X connect 1092 0 1089 1;
#X connect 1093 0 1085 0;
#X connect 1094 0 1088 0;
#X connect 1095 0 1082 0;
#X connect 1096 0 1091 0;
#X connect 1097 0 1092 0;
#X connect 1098 0 1083 0;
#X connect 1098 0 1087 0;
#X connect 1099 0 1083 0;
#X connect 1100 0 1101 0;
#X connect 1101 0 1115 0;
#X connect 1103 0 1114 0;
#X connect 1104 0 1110 0;
#X connect 1105 0 1106 0;
#X connect 1106 0 1113 0;
#X connect 1107 0 1103 0;
#X connect 1107 0 1105 1;
#X connect 1108 0 1103 1;
#X connect 1109 0 1106 1;
#X connect 1110 0 1105 0;
#X connect 1111 0 1108 0;
#X connect 1112 0 1109 0;
#X connect 1113 0 1102 0;
#X connect 1114 0 1102 0;
#X connect 1114 0 1104 0;
#X connect 1115 0 1107 0;
#X connect 1116 0 1118 0;
#X connect 1117 0 1116 1;
#X connect 1118 0 1119 0;
#X connect 1119 0 1134 0;
#X connect 1121 0 1133 0;
#X connect 1122 0 1128 0;
#X connect 1123 0 1124 0;
#X connect 1124 0 1132 0;
#X connect 1125 0 1121 0;
#X connect 1125 0 1123 1;
#X connect 1126 0 1121 1;
#X connect 1127 0 1124 1;
#X connect 1128 0 1123 0;
#X connect 1129 0 1117 0;
#X connect 1130 0 1126 0;
#X connect 1131 0 1127 0;
#X connect 1132 0 1120 0;
#X connect 1133 0 1120 0;
#X connect 1133 0 1122 0;
#X connect 1134 0 1125 0;
#X connect 1135 0 1137 0;
#X connect 1136 0 1135 1;
#X connect 1137 0 1138 0;
#X connect 1138 0 1149 0;
#X connect 1140 0 1152 0;
#X connect 1141 0 1147 0;
#X connect 1142 0 1143 0;
#X connect 1143 0 1153 0;
#X connect 1144 0 1140 0;
#X connect 1144 0 1142 1;
#X connect 1145 0 1140 1;
#X connect 1146 0 1143 1;
#X connect 1147 0 1142 0;
#X connect 1148 0 1136 0;
#X connect 1149 0 1144 0;
#X connect 1150 0 1145 0;
#X connect 1151 0 1146 0;
#X connect 1152 0 1139 0;
#X connect 1152 0 1141 0;
#X connect 1153 0 1139 0;
#X connect 1154 0 1156 0;
#X connect 1155 0 1154 1;
#X connect 1156 0 1157 0;
#X connect 1157 0 1190 0;
#X connect 1159 0 1170 0;
#X connect 1160 0 1166 0;
#X connect 1161 0 1162 0;
#X connect 1162 0 1171 0;
#X connect 1163 0 1159 0;
#X connect 1163 0 1161 1;
#X connect 1164 0 1159 1;
#X connect 1165 0 1162 1;
#X connect 1166 0 1161 0;
#X connect 1167 0 1155 0;
#X connect 1168 0 1164 0;
#X connect 1169 0 1165 0;
#X connect 1170 0 1158 0;
#X connect 1170 0 1160 0;
#X connect 1171 0 1158 0;
#X connect 1172 0 1174 0;
#X connect 1173 0 1172 1;
#X connect 1174 0 1175 0;
#X connect 1175 0 1191 0;
#X connect 1177 0 1186 0;
#X connect 1178 0 1184 0;
#X connect 1179 0 1180 0;
#X connect 1180 0 1185 0;
#X connect 1181 0 1177 0;
#X connect 1181 0 1179 1;
#X connect 1182 0 1177 1;
#X connect 1183 0 1180 1;
#X connect 1184 0 1179 0;
#X connect 1185 0 1176 0;
#X connect 1186 0 1176 0;
#X connect 1186 0 1178 0;
#X connect 1187 0 1173 0;
#X connect 1188 0 1182 0;
#X connect 1189 0 1183 0;
#X connect 1190 0 1163 0;
#X connect 1191 0 1181 0;
#X connect 1192 0 1194 0;
#X connect 1193 0 1192 1;
#X connect 1194 0 1195 0;
#X connect 1195 0 1209 0;
#X connect 1197 0 1206 0;
#X connect 1198 0 1204 0;
#X connect 1199 0 1200 0;
#X connect 1200 0 1205 0;
#X connect 1201 0 1197 0;
#X connect 1201 0 1199 1;
#X connect 1202 0 1197 1;
#X connect 1203 0 1200 1;
#X connect 1204 0 1199 0;
#X connect 1205 0 1196 0;
#X connect 1206 0 1196 0;
#X connect 1206 0 1198 0;
#X connect 1207 0 1203 0;
#X connect 1208 0 1193 0;
#X connect 1209 0 1201 0;
#X connect 1210 0 1202 0;
#X connect 1211 0 1213 0;
#X connect 1212 0 1211 1;
#X connect 1213 0 1214 0;
#X connect 1214 0 1228 0;
#X connect 1216 0 1227 0;
#X connect 1217 0 1223 0;
#X connect 1218 0 1219 0;
#X connect 1219 0 1226 0;
#X connect 1220 0 1216 0;
#X connect 1220 0 1218 1;
#X connect 1221 0 1216 1;
#X connect 1222 0 1219 1;
#X connect 1223 0 1218 0;
#X connect 1224 0 1212 0;
#X connect 1225 0 1222 0;
#X connect 1226 0 1215 0;
#X connect 1227 0 1215 0;
#X connect 1227 0 1217 0;
#X connect 1228 0 1220 0;
#X connect 1229 0 1221 0;
#X connect 1230 0 1232 0;
#X connect 1231 0 1230 1;
#X connect 1232 0 1233 0;
#X connect 1233 0 1248 0;
#X connect 1235 0 1247 0;
#X connect 1236 0 1242 0;
#X connect 1237 0 1238 0;
#X connect 1238 0 1246 0;
#X connect 1239 0 1235 0;
#X connect 1239 0 1237 1;
#X connect 1240 0 1235 1;
#X connect 1241 0 1238 1;
#X connect 1242 0 1237 0;
#X connect 1243 0 1231 0;
#X connect 1244 0 1240 0;
#X connect 1245 0 1241 0;
#X connect 1246 0 1234 0;
#X connect 1247 0 1234 0;
#X connect 1247 0 1236 0;
#X connect 1248 0 1239 0;
#X restore 471 25 pd senders;
#N canvas 192 345 974 359 init 0;
#X obj 40 11 loadbang;
#X obj 67 128 s t_factor;
#X obj 64 180 s piezo_factor;
#X msg 64 156 500;
#X msg 62 217 40;
#X obj 56 268 hsl 70 15 0 70 0 0 empty empty empty -2 -8 0 10 -262144
-1 -1 3943 1;
#X obj 159 268 hsl 70 15 0 70 0 0 empty empty empty -2 -8 0 10 -262144
-1 -1 3943 1;
#X obj 257 270 hsl 70 15 0 70 0 0 empty empty empty -2 -8 0 10 -262144
-1 -1 3943 1;
#X obj 366 272 hsl 70 15 0 70 0 0 empty empty empty -2 -8 0 10 -262144
-1 -1 3943 1;
#X obj 471 275 hsl 70 15 0 70 0 0 empty empty empty -2 -8 0 10 -262144
-1 -1 3943 1;
#X obj 580 271 hsl 70 15 0 70 0 0 empty empty empty -2 -8 0 10 -262144
-1 -1 3943 1;
#X obj 672 272 hsl 70 15 0 70 0 0 empty empty empty -2 -8 0 10 -262144
-1 -1 3943 1;
#X obj 780 270 hsl 70 15 0 70 0 0 empty empty empty -2 -8 0 10 -262144
-1 -1 3943 1;
#X obj 53 292 s onePiezoRange;
#X obj 157 292 s twoPiezoRange;
#X obj 257 294 s threePiezoRange;
#X obj 365 295 s fourPiezoRange;
#X obj 471 295 s fivePiezoRange;
#X obj 573 296 s sixPiezoRange;
#X obj 670 296 s sevenPiezoRange;
#X obj 781 296 s eightPiezoRange;
#X msg 68 106 2e+06;
#X obj 70 80 s accel_factorX;
#X msg 285 48 5;
#X obj 284 75 s accel_factorZ;
#X obj 180 78 s accel_factorY;
#X msg 70 53 10;
#X msg 181 51 4;
#X connect 0 0 26 0;
#X connect 0 0 21 0;
#X connect 0 0 3 0;
#X connect 0 0 4 0;
#X connect 0 0 27 0;
#X connect 0 0 23 0;
#X connect 3 0 2 0;
#X connect 4 0 5 0;
#X connect 4 0 6 0;
#X connect 4 0 7 0;
#X connect 4 0 8 0;
#X connect 4 0 9 0;
#X connect 4 0 10 0;
#X connect 4 0 11 0;
#X connect 4 0 12 0;
#X connect 5 0 13 0;
#X connect 6 0 14 0;
#X connect 7 0 15 0;
#X connect 8 0 16 0;
#X connect 9 0 17 0;
#X connect 10 0 18 0;
#X connect 11 0 19 0;
#X connect 12 0 20 0;
#X connect 21 0 1 0;
#X connect 23 0 24 0;
#X connect 26 0 22 0;
#X connect 27 0 25 0;
#X restore 324 26 pd init;
#X obj 88 83 cnv 15 100 600 empty empty empty 20 12 0 14 -233017 -66577
0;
#X obj 195 83 cnv 15 100 600 empty empty empty 20 12 0 14 -233017 -66577
0;
#X obj 301 83 cnv 15 100 600 empty empty empty 20 12 0 14 -233017 -66577
0;
#X obj 408 83 cnv 15 100 600 empty empty empty 20 12 0 14 -233017 -66577
0;
#X obj 515 83 cnv 15 100 600 empty empty empty 20 12 0 14 -233017 -66577
0;
#X obj 622 83 cnv 15 100 600 empty empty empty 20 12 0 14 -233017 -66577
0;
#X obj 728 83 cnv 15 100 600 empty empty empty 20 12 0 14 -233017 -66577
0;
#X obj 835 83 cnv 15 100 600 empty empty empty 20 12 0 14 -233017 -66577
0;
#N canvas 50 137 1214 678 controls 0;
#X obj 102 31 cnv 15 100 600 empty empty empty 20 12 0 14 -233017 -66577
0;
#X obj 209 31 cnv 15 100 600 empty empty empty 20 12 0 14 -233017 -66577
0;
#X obj 315 31 cnv 15 100 600 empty empty empty 20 12 0 14 -233017 -66577
0;
#X obj 422 31 cnv 15 100 600 empty empty empty 20 12 0 14 -233017 -66577
0;
#X obj 529 31 cnv 15 100 600 empty empty empty 20 12 0 14 -233017 -66577
0;
#X obj 636 31 cnv 15 100 600 empty empty empty 20 12 0 14 -233017 -66577
0;
#X obj 742 31 cnv 15 100 600 empty empty empty 20 12 0 14 -233017 -66577
0;
#X obj 849 31 cnv 15 100 600 empty empty empty 20 12 0 14 -233017 -66577
0;
#X obj 121 146 s oneAccelOn;
#X obj 121 118 tgl 15 0 empty empty empty 17 7 0 10 -262144 -1 -1 0
1;
#X obj 217 120 tgl 15 0 empty empty empty 17 7 0 10 -262144 -1 -1 0
1;
#X obj 217 148 s twoAccelOn;
#X obj 321 121 tgl 15 0 empty empty empty 17 7 0 10 -262144 -1 -1 0
1;
#X obj 435 119 tgl 15 0 empty empty empty 17 7 0 10 -262144 -1 -1 0
1;
#X obj 549 116 tgl 15 0 empty empty empty 17 7 0 10 -262144 -1 -1 0
1;
#X obj 647 114 tgl 15 0 empty empty empty 17 7 0 10 -262144 -1 -1 0
1;
#X obj 746 112 tgl 15 0 empty empty empty 17 7 0 10 -262144 -1 -1 0
1;
#X obj 865 113 tgl 15 0 empty empty empty 17 7 0 10 -262144 -1 -1 0
1;
#X obj 321 149 s threeAccelOn;
#X obj 437 147 s fourAccelOn;
#X obj 549 144 s fiveAccelOn;
#X obj 647 142 s sixAccelOn;
#X obj 746 140 s sevenAccelOn;
#X obj 866 141 s eightAccelOn;
#X obj 122 194 tgl 15 0 empty empty empty 17 7 0 10 -262144 -1 -1 0
1;
#X obj 218 196 tgl 15 0 empty empty empty 17 7 0 10 -262144 -1 -1 0
1;
#X obj 322 197 tgl 15 0 empty empty empty 17 7 0 10 -262144 -1 -1 0
1;
#X obj 436 195 tgl 15 0 empty empty empty 17 7 0 10 -262144 -1 -1 0
1;
#X obj 550 192 tgl 15 0 empty empty empty 17 7 0 10 -262144 -1 -1 0
1;
#X obj 648 190 tgl 15 0 empty empty empty 17 7 0 10 -262144 -1 -1 0
1;
#X obj 747 188 tgl 15 0 empty empty empty 17 7 0 10 -262144 -1 -1 0
1;
#X obj 866 189 tgl 15 0 empty empty empty 17 7 0 10 -262144 -1 -1 0
1;
#X obj 122 222 s onetOn;
#X obj 218 224 s twotOn;
#X obj 322 225 s threetOn;
#X obj 438 223 s fourtOn;
#X obj 550 220 s fivetOn;
#X obj 648 218 s sixtOn;
#X obj 747 216 s seventOn;
#X obj 867 217 s eighttOn;
#X obj 122 275 tgl 15 0 empty empty empty 17 7 0 10 -262144 -1 -1 0
1;
#X obj 218 277 tgl 15 0 empty empty empty 17 7 0 10 -262144 -1 -1 0
1;
#X obj 322 278 tgl 15 0 empty empty empty 17 7 0 10 -262144 -1 -1 0
1;
#X obj 436 276 tgl 15 0 empty empty empty 17 7 0 10 -262144 -1 -1 0
1;
#X obj 550 273 tgl 15 0 empty empty empty 17 7 0 10 -262144 -1 -1 0
1;
#X obj 648 271 tgl 15 0 empty empty empty 17 7 0 10 -262144 -1 -1 0
1;
#X obj 747 269 tgl 15 0 empty empty empty 17 7 0 10 -262144 -1 -1 0
1;
#X obj 866 270 tgl 15 0 empty empty empty 17 7 0 10 -262144 -1 -1 0
1;
#X obj 122 303 s onePiezoOn;
#X obj 218 305 s twoPiezoOn;
#X obj 322 306 s threePiezoOn;
#X obj 438 304 s fourPiezoOn;
#X obj 550 301 s fivePiezoOn;
#X obj 648 299 s sixPiezoOn;
#X obj 747 297 s sevenPiezoOn;
#X obj 867 298 s eightPiezoOn;
#X obj 144 334 tgl 15 0 empty empty empty 17 7 0 10 -262144 -1 -1 0
1;
#X obj 237 336 tgl 15 0 empty empty empty 17 7 0 10 -262144 -1 -1 0
1;
#X obj 346 337 tgl 15 0 empty empty empty 17 7 0 10 -262144 -1 -1 0
1;
#X obj 454 343 tgl 15 0 empty empty empty 17 7 0 10 -262144 -1 -1 0
1;
#X obj 569 337 tgl 15 0 empty empty empty 17 7 0 10 -262144 -1 -1 0
1;
#X obj 671 341 tgl 15 0 empty empty empty 17 7 0 10 -262144 -1 -1 0
1;
#X obj 778 340 tgl 15 0 empty empty empty 17 7 0 10 -262144 -1 -1 0
1;
#X obj 894 341 tgl 15 0 empty empty empty 17 7 0 10 -262144 -1 -1 0
1;
#X obj 121 373 s onePiezoDet;
#X obj 233 364 s twoPiezoDet;
#X obj 346 366 s threePiezoDet;
#X obj 456 371 s fourPiezoDet;
#X obj 569 365 s fivePiezoDet;
#X obj 673 368 s sixPiezoDet;
#X obj 778 368 s sevenPiezoDet;
#X obj 895 369 s eightPiezoDet;
#X obj 143 397 tgl 15 0 empty empty empty 17 7 0 10 -262144 -1 -1 0
1;
#X obj 241 404 tgl 15 0 empty empty empty 17 7 0 10 -262144 -1 -1 0
1;
#X obj 352 405 tgl 15 0 empty empty empty 17 7 0 10 -262144 -1 -1 0
1;
#X obj 455 406 tgl 15 0 empty empty empty 17 7 0 10 -262144 -1 -1 0
1;
#X obj 567 405 tgl 15 0 empty empty empty 17 7 0 10 -262144 -1 -1 0
1;
#X obj 678 406 tgl 15 0 empty empty empty 17 7 0 10 -262144 -1 -1 0
1;
#X obj 776 413 tgl 15 0 empty empty empty 17 7 0 10 -262144 -1 -1 0
1;
#X obj 899 408 tgl 15 0 empty empty empty 17 7 0 10 -262144 -1 -1 0
1;
#X obj 114 440 s onePiezoRan;
#X obj 243 431 s twoPiezoRan;
#X obj 347 433 s threePiezoRan;
#X obj 457 434 s fourPiezoRan;
#X obj 567 433 s fivePiezoRan;
#X obj 663 437 s sixPiezoRan;
#X obj 774 439 s sevenPiezoRan;
#X obj 887 436 s eightPiezoRan;
#X obj 142 464 hsl 40 15 0 70 0 0 empty empty empty -2 -8 0 10 -262144
-1 -1 0 1;
#X obj 114 498 s onePiezoRange;
#X obj 227 500 s twoPiezoRange;
#X obj 318 500 s threePiezoRange;
#X obj 426 501 s fourPiezoRange;
#X obj 532 501 s fivePiezoRange;
#X obj 652 500 s sixPiezoRange;
#X obj 735 502 s sevenPiezoRange;
#X obj 855 502 s eightPiezoRange;
#X obj 241 464 hsl 40 15 0 70 0 0 empty empty empty -2 -8 0 10 -262144
-1 -1 0 1;
#X obj 345 467 hsl 40 15 0 70 0 0 empty empty empty -2 -8 0 10 -262144
-1 -1 0 1;
#X obj 465 465 hsl 40 15 0 70 0 0 empty empty empty -2 -8 0 10 -262144
-1 -1 0 1;
#X obj 571 469 hsl 40 15 0 70 0 0 empty empty empty -2 -8 0 10 -262144
-1 -1 0 1;
#X obj 669 467 hsl 40 15 0 70 0 0 empty empty empty -2 -8 0 10 -262144
-1 -1 0 1;
#X obj 778 473 hsl 40 15 0 70 0 0 empty empty empty -2 -8 0 10 -262144
-1 -1 0 1;
#X obj 893 469 hsl 40 15 0 70 0 0 empty empty empty -2 -8 0 10 -262144
-1 -1 0 1;
#X connect 9 0 8 0;
#X connect 10 0 11 0;
#X connect 12 0 18 0;
#X connect 13 0 19 0;
#X connect 14 0 20 0;
#X connect 15 0 21 0;
#X connect 16 0 22 0;
#X connect 17 0 23 0;
#X connect 24 0 32 0;
#X connect 25 0 33 0;
#X connect 26 0 34 0;
#X connect 27 0 35 0;
#X connect 28 0 36 0;
#X connect 29 0 37 0;
#X connect 30 0 38 0;
#X connect 31 0 39 0;
#X connect 40 0 48 0;
#X connect 41 0 49 0;
#X connect 42 0 50 0;
#X connect 43 0 51 0;
#X connect 44 0 52 0;
#X connect 45 0 53 0;
#X connect 46 0 54 0;
#X connect 47 0 55 0;
#X connect 56 0 64 0;
#X connect 57 0 65 0;
#X connect 58 0 66 0;
#X connect 59 0 67 0;
#X connect 60 0 68 0;
#X connect 61 0 69 0;
#X connect 62 0 70 0;
#X connect 63 0 71 0;
#X connect 72 0 80 0;
#X connect 73 0 81 0;
#X connect 74 0 82 0;
#X connect 75 0 83 0;
#X connect 76 0 84 0;
#X connect 77 0 85 0;
#X connect 78 0 86 0;
#X connect 79 0 87 0;
#X connect 88 0 89 0;
#X connect 97 0 90 0;
#X connect 98 0 91 0;
#X connect 99 0 92 0;
#X connect 100 0 93 0;
#X connect 101 0 94 0;
#X connect 102 0 95 0;
#X connect 103 0 96 0;
#X coords 0 -1 1 1 850 500 1 100 100;
#X restore 88 144 pd controls;
#X text 123 101 ONE;
#X text 222 100 TWO;
#X text 322 101 THREE;
#X text 440 98 FOUR;
#X text 538 96 FIVE;
#X text 642 97 SIX;
#X text 747 100 SEVEN;
#X text 855 96 EIGHT;
#X obj 899 101 bng 15 250 50 0 empty eightActive empty 17 7 0 10 -262144
-1 -1;
#X obj 253 101 bng 15 250 50 0 empty twoActive empty 17 7 0 10 -262144
-1 -1;
#X obj 368 100 bng 15 250 50 0 empty threeActive empty 17 7 0 10 -262144
-1 -1;
#X obj 482 100 bng 15 250 50 0 empty fourActive empty 17 7 0 10 -262144
-1 -1;
#X obj 684 101 bng 15 250 50 0 empty sixActive empty 17 7 0 10 -262144
-1 -1;
#X obj 794 102 bng 15 250 50 0 empty sevenActive empty 17 7 0 10 -262144
-1 -1;
#X obj 576 104 bng 15 250 50 0 empty fiveActive empty 17 7 0 10 -262144
-1 -1;
#X obj 16 315 cnv 15 70 300 empty empty empty 20 12 0 14 -261682 -66577
0;
#X text 15 320 PIEZO ON;
#X text 15 440 PIEZO RANDOM;
#X text 15 507 PIEZO RANGE;
#X text 17 380 PIEZO NOTE;
#X text 15 104 SLEEPERS;
#X obj 154 102 bng 15 250 50 0 empty oneActive empty 17 7 0 10 -262144
-1 -1;
#X obj 16 218 cnv 15 70 60 empty empty empty 20 12 0 14 -204786 -66577
0;
#X text 30 237 TOUCH;
#X obj 15 146 cnv 15 70 60 empty empty empty 20 12 0 14 -204800 -66577
0;
#X text 13 164 INCLINATION;
#X obj 14 7 cnv 15 300 60 empty empty Sleepers_Festival_der_Regionen
20 25 0 14 -204800 -66577 0;
#N canvas 0 25 450 300 configurators 0;
#X msg 114 143 disconnect;
#X obj 34 95 list prepend send;
#X obj 33 117 list trim;
#X floatatom 35 192 5 0 0 0 - - -;
#X obj 36 161 netsend -u -b;
#X obj 35 72 oscformat threshold;
#X msg 114 124 connect 192.168.0.129 44448;
#X msg 38 51 30 10;
#X connect 0 0 4 0;
#X connect 1 0 2 0;
#X connect 2 0 4 0;
#X connect 4 0 3 0;
#X connect 5 0 1 0;
#X connect 6 0 4 0;
#X connect 7 0 5 0;
#X restore 545 27 pd configurators;
